<svg width="142" height="110" viewBox="0 0 142 110" fill="none" xmlns="http://www.w3.org/2000/svg">
<g clip-path="url(#clip0_40000001_33293)">
<g clip-path="url(#clip1_40000001_33293)" filter="url(#filter0_f_40000001_33293)">
<rect x="2" y="99.0636" width="202.062" height="140" transform="rotate(-90 2 99.0636)" fill="white"/>
<path d="M65.5039 60.0948H134.061" stroke="black" stroke-width="0.721649"/>
<path d="M65.5039 48.5485H133.339" stroke="#6764E8" stroke-width="0.721649"/>
<path d="M65.5039 37.0021H94.3699" stroke="#6764E8" stroke-width="0.721649"/>
<path d="M101.586 37.0021H133.339" stroke="#6764E8" stroke-width="0.721649"/>
<rect x="65.5039" y="15.3527" width="67.8351" height="14.433" fill="#EAF1FE" stroke="#6764E8" stroke-width="0.721649"/>
<rect x="12.1016" y="15.3527" width="46.1856" height="46.1856" fill="#EAF1FE" stroke="#6764E8" stroke-width="0.721649"/>
<path d="M55.7274 61.1385H13.3906C13.4272 60.8995 13.475 60.6324 13.5284 60.3457C13.5846 60.0505 13.6493 59.7356 13.7196 59.4095C13.8292 58.9091 13.9557 58.3805 14.0963 57.8464C14.1806 57.5315 14.2678 57.2194 14.3606 56.9102C14.5208 56.3648 14.6979 55.8362 14.8835 55.3498C15.01 55.0125 15.1449 54.6976 15.2827 54.4136C15.4767 54.0088 15.6791 53.6658 15.8843 53.4184C16.0361 53.2329 16.2582 53.0445 16.5281 52.8533C16.9667 52.5413 17.5431 52.2236 18.1841 51.9171C19.3929 51.3352 20.8324 50.7841 22.0413 50.3568C23.4891 49.8451 24.6081 49.5106 24.6081 49.5106L24.9651 49.4206L29.8823 48.1808H37.3184L42.542 49.4206L43.6047 49.6736C43.6047 49.6736 44.7686 49.9351 46.2727 50.3596C47.7121 50.7645 49.4692 51.3127 50.8187 51.9199C51.4906 52.2208 52.0613 52.5384 52.4437 52.8561C52.5533 52.9489 52.6489 53.0417 52.7276 53.1345C52.975 53.4325 53.2393 53.8795 53.5092 54.4193C53.6526 54.7088 53.796 55.0237 53.9394 55.3555C54.1502 55.8475 54.3554 56.376 54.5494 56.9158C54.6619 57.2278 54.7687 57.5399 54.8699 57.852C55.0442 58.3861 55.2017 58.9175 55.3366 59.4151C55.4266 59.744 55.5025 60.0589 55.57 60.3513C55.6346 60.6381 55.6852 60.9052 55.7246 61.1441L55.7274 61.1385Z" fill="white"/>
<path fill-rule="evenodd" clip-rule="evenodd" d="M14.3606 56.9102C14.2678 57.2194 14.1806 57.5315 14.0963 57.8464C13.9557 58.3805 13.8292 58.9091 13.7196 59.4095C13.6493 59.7356 13.5846 60.0505 13.5284 60.3457C13.4951 60.5246 13.4639 60.6958 13.4363 60.8574C13.4197 60.9548 13.4044 61.0486 13.3906 61.1385H55.7237C55.724 61.1404 55.7243 61.1422 55.7246 61.1441L55.7274 61.1385H55.7237C55.7235 61.1378 55.7234 61.1371 55.7233 61.1365C55.7086 61.0472 55.6922 60.954 55.6742 60.8574C55.6444 60.6975 55.6098 60.5281 55.57 60.3513C55.5025 60.0589 55.4266 59.744 55.3366 59.4151C55.2017 58.9175 55.0442 58.3861 54.8699 57.852C54.7687 57.5399 54.6619 57.2279 54.5494 56.9158C54.3554 56.376 54.1502 55.8475 53.9394 55.3555C53.796 55.0237 53.6526 54.7088 53.5092 54.4193C53.2393 53.8795 52.975 53.4325 52.7276 53.1345C52.6489 53.0417 52.5533 52.9489 52.4437 52.8561C52.0613 52.5384 51.4906 52.2208 50.8187 51.9199C49.4692 51.3127 47.7121 50.7645 46.2727 50.3596C44.7686 49.9351 43.6047 49.6736 43.6047 49.6736L37.3184 48.1808H29.8823L24.6081 49.5106C24.6081 49.5106 23.4892 49.8451 22.0413 50.3568C20.8324 50.7841 19.3929 51.3352 18.1841 51.9171C17.5431 52.2236 16.9667 52.5413 16.5281 52.8533C16.2582 53.0445 16.0361 53.2329 15.8843 53.4184C15.6791 53.6658 15.4767 54.0088 15.2827 54.4136C15.1449 54.6976 15.01 55.0125 14.8835 55.3498C14.6979 55.8362 14.5208 56.3648 14.3606 56.9102ZM22.135 50.6219C20.9297 51.0479 19.5013 51.595 18.306 52.1704L18.3053 52.1708C17.6712 52.4739 17.111 52.7836 16.6911 53.0824L16.6906 53.0827C16.4293 53.2679 16.2305 53.4392 16.1019 53.5964L16.1007 53.5979C15.9163 53.8202 15.7255 54.1402 15.5362 54.5351L15.5356 54.5364C15.402 54.8119 15.2704 55.1187 15.1467 55.4486L15.1462 55.4501C14.9635 55.9289 14.7887 56.4504 14.6303 56.9894L14.6298 56.9909C14.5381 57.2966 14.4518 57.6057 14.368 57.9185C14.2286 58.4484 14.1031 58.9728 13.9943 59.4692C13.9244 59.7933 13.8603 60.1056 13.8047 60.3977C13.7747 60.5585 13.7467 60.7121 13.7216 60.8574H55.3881C55.3612 60.7163 55.3306 60.568 55.2959 60.414C55.2289 60.1236 55.1539 59.8129 55.0654 59.4893L55.0653 59.4887C54.9315 58.9955 54.7754 58.4687 54.6026 57.9392L54.6025 57.9387C54.5022 57.6296 54.3964 57.3204 54.2849 57.0111C54.0926 56.4758 53.8894 55.9527 53.6813 55.467C53.5392 55.1383 53.3979 54.8281 53.2573 54.5442C52.9908 54.0112 52.7385 53.588 52.5124 53.3153C52.4464 53.2377 52.3633 53.1564 52.2631 53.0716C51.91 52.7785 51.3669 52.4734 50.7038 52.1765L50.7033 52.1763C49.3739 51.5781 47.6335 51.0344 46.1966 50.6303C45.4481 50.419 44.7839 50.2482 44.3072 50.1304C44.0688 50.0714 43.8774 50.0257 43.7458 49.9948C43.6799 49.9794 43.629 49.9676 43.5947 49.9597L43.5559 49.9508L43.5432 49.948L43.5395 49.9472L42.477 49.6942L37.2855 48.4619H29.9172L25.0339 49.6932L24.6829 49.7817L24.6763 49.7837L24.6388 49.795C24.6058 49.805 24.5569 49.8199 24.4935 49.8395C24.3669 49.8786 24.1827 49.9361 23.9534 50.0095C23.4947 50.1565 22.8557 50.3672 22.135 50.6219Z" fill="white"/>
<path d="M24.8094 38.7165C24.8094 38.7165 24.0869 40.4258 24.8094 41.4351C25.5319 42.4444 26.6677 42.2673 26.6677 42.2673C26.6677 42.2673 26.0071 44.9437 28.0313 45.2952C30.0555 45.6466 30.4434 44.0666 30.4434 44.0666C30.4434 44.0666 28.8269 37.4879 24.8122 38.7165H24.8094Z" fill="black"/>
<path d="M41.9622 38.7165C41.9622 38.7165 42.6847 40.4258 41.9622 41.4351C41.2396 42.4444 40.1038 42.2673 40.1038 42.2673C40.1038 42.2673 40.7645 44.9437 38.7403 45.2952C36.7161 45.6466 36.3281 44.0666 36.3281 44.0666C36.3281 44.0666 37.9447 37.4879 41.9593 38.7165H41.9622Z" fill="black"/>
<path d="M37.9971 48.4801C37.9971 48.4801 36.9147 50.5043 33.8896 50.5043C30.8646 50.5043 29.7344 48.3789 29.7344 48.3789L29.9143 46.9226L29.9452 46.678L30.2264 44.3839L37.4573 44.5863L37.5782 45.4579L37.6175 45.7446L37.9971 48.4801Z" fill="white"/>
<path fill-rule="evenodd" clip-rule="evenodd" d="M29.9452 46.678L29.9143 46.9226L29.7344 48.3789C29.7344 48.3789 30.8646 50.5043 33.8896 50.5043C36.9147 50.5043 37.9971 48.4801 37.9971 48.4801L37.6175 45.7446L37.5782 45.4579L37.4573 44.5863L30.2264 44.3839L29.9452 46.678ZM30.4743 44.6721L30.2242 46.7133L30.1933 46.9571L30.1932 46.9579L30.0252 48.3179C30.0256 48.3186 30.026 48.3192 30.0263 48.3198C30.059 48.3714 30.1101 48.4473 30.1811 48.5396C30.3232 48.7244 30.5437 48.9731 30.8538 49.2225C31.4709 49.7189 32.4489 50.2232 33.8896 50.2232C35.3339 50.2232 36.3009 49.7417 36.9048 49.2705C37.2084 49.0337 37.4224 48.7977 37.5594 48.623C37.6256 48.5385 37.6736 48.4685 37.7049 48.4201L37.339 45.7829L37.2996 45.4961L37.2115 44.8607L30.4743 44.6721ZM29.9823 48.2463C29.9822 48.2461 29.9822 48.2462 29.9823 48.2463V48.2463Z" fill="black"/>
<path d="M27.4926 38.4242C25.876 40.6817 22.3899 39.1551 22.6289 36.1582C22.8454 33.4396 25.8817 33.8697 25.8817 33.8697L27.4926 38.4213V38.4242Z" fill="white"/>
<path fill-rule="evenodd" clip-rule="evenodd" d="M25.8817 33.8697C25.8817 33.8697 22.8454 33.4396 22.6289 36.1582C22.3899 39.1551 25.876 40.6817 27.4926 38.4242V38.4213L25.8817 33.8697ZM27.1778 38.3745C26.4557 39.2789 25.3814 39.4145 24.4812 39.0056C23.5414 38.5788 22.7994 37.5568 22.9091 36.1805L22.9091 36.1805C22.9588 35.5569 23.167 35.1352 23.4352 34.8442C23.7065 34.5498 24.0565 34.3703 24.4161 34.2641C24.7761 34.1577 25.1344 34.1281 25.406 34.1261C25.5128 34.1253 25.6049 34.1288 25.6767 34.1332L27.1778 38.3745Z" fill="black"/>
<path d="M39.4805 38.4242C41.097 40.6817 44.5831 39.1551 44.3442 36.1582C44.1277 33.4396 41.0914 33.8697 41.0914 33.8697L39.4805 38.4213V38.4242Z" fill="white"/>
<path fill-rule="evenodd" clip-rule="evenodd" d="M44.0639 36.1805L44.0639 36.1805C44.0143 35.5569 43.806 35.1352 43.5378 34.8442C43.2666 34.5498 42.9165 34.3703 42.5569 34.2641C42.197 34.1577 41.8386 34.1281 41.5671 34.1261C41.4603 34.1253 41.3682 34.1288 41.2964 34.1332L39.7953 38.3745C40.5174 39.2789 41.5917 39.4145 42.4919 39.0056C43.4317 38.5788 44.1737 37.5568 44.0639 36.1805ZM39.4805 38.4213L41.0914 33.8697C41.0914 33.8697 44.1277 33.4396 44.3442 36.1582C44.5831 39.1551 41.097 40.6817 39.4805 38.4242V38.4213Z" fill="black"/>
<path d="M25.232 30.5559C25.232 30.5559 24.442 35.4562 26.4887 40.2468C28.3442 44.5904 31.1078 45.9427 33.7336 45.9848C36.7221 46.0326 42.6851 44.3036 41.6955 30.1258C41.0264 20.5445 26.022 20.8847 25.232 30.5559Z" fill="white"/>
<path fill-rule="evenodd" clip-rule="evenodd" d="M25.5095 30.6006L25.5095 30.6007L25.5095 30.6009L25.5092 30.603L25.5077 30.6124C25.5064 30.621 25.5044 30.6341 25.5019 30.6518C25.4969 30.6871 25.4896 30.7403 25.4811 30.8101C25.4639 30.9497 25.4415 31.1557 25.4208 31.4185C25.3794 31.9441 25.345 32.6959 25.3738 33.5959C25.4314 35.3978 25.7419 37.7832 26.7472 40.1363L26.7472 40.1363C27.6593 42.2714 28.7849 43.6494 29.9848 44.4994C31.1834 45.3486 32.4738 45.6834 33.7381 45.7037C35.1761 45.7267 37.3164 45.3241 38.9859 43.2154C40.6638 41.0961 41.9077 37.203 41.415 30.1453C41.2533 27.8299 40.2296 26.1288 38.7804 25.0137C37.3257 23.8942 35.4282 23.3554 33.5159 23.4022C29.6872 23.496 25.8926 25.9223 25.5122 30.5788L25.5113 30.5898L25.5095 30.6006L25.5095 30.6006ZM41.6955 30.1258C42.6851 44.3036 36.7221 46.0326 33.7336 45.9848C31.1078 45.9427 28.3442 44.5904 26.4887 40.2468C24.442 35.4562 25.232 30.5559 25.232 30.5559C26.022 20.8847 41.0264 20.5445 41.6955 30.1258Z" fill="black"/>
<path d="M33.9846 38.9888C33.9846 38.9888 33.9761 38.9888 33.9705 38.9888L32.6548 38.882C32.5564 38.8736 32.4805 38.7864 32.4889 38.688C32.4974 38.5896 32.5845 38.5137 32.6829 38.5221L33.7822 38.6121L33.4392 35.2694C33.4279 35.171 33.501 35.081 33.5994 35.0726C33.6978 35.0613 33.7878 35.1344 33.7962 35.2328L34.1617 38.792C34.1673 38.8454 34.1476 38.8989 34.1111 38.9354C34.0774 38.9691 34.0296 38.9888 33.9818 38.9888H33.9846Z" fill="black"/>
<path d="M26.1714 33.4836C26.267 34.5913 25.6681 35.9801 24.7235 35.3897C24.3074 35.1311 24.3412 34.3355 24.1753 33.374C23.9785 32.2325 24.5042 32.4518 23.3431 30.9196C22.1145 29.2974 22.927 26.9078 24.1753 26.8403C24.1753 26.8403 22.6234 24.341 24.8135 22.4123C26.7843 20.6777 28.5161 21.9091 28.5161 21.9091C28.5161 21.9091 28.8816 19.5419 30.9395 19.213C32.9974 18.884 34.6252 20.6918 34.6252 20.6918C34.6252 20.6918 35.9803 18.8897 38.4206 19.7443C40.8581 20.599 40.1131 22.3589 40.1131 22.3589C40.1131 22.3589 42.5478 22.0722 43.5345 23.8939C44.3892 25.4711 43.2703 26.6435 43.2703 26.6435C43.2703 26.6435 44.3498 27.352 44.1249 29.2525C43.931 30.8803 42.7108 31.0068 42.6939 32.1257C42.6855 32.7498 42.5506 33.4752 42.4353 33.9981C42.3453 34.4086 41.9405 35.1198 41.5188 35.1198C40.9762 35.1198 40.5995 34.223 40.6697 33.686C40.785 32.7808 40.8216 31.4903 40.2649 30.7453C39.3428 29.5167 39.8994 27.9395 38.415 27.501C36.9306 27.0624 32.0191 29.4296 28.5105 27.456C28.5105 27.456 28.7185 29.3958 27.4927 29.9666C26.267 30.5373 26.0702 32.6093 26.1658 33.4864C26.1658 33.4611 26.1658 33.5117 26.1658 33.4864L26.1714 33.4836Z" fill="black"/>
<path fill-rule="evenodd" clip-rule="evenodd" d="M30.9324 40.5949C30.8769 40.4265 30.8543 40.3145 30.8518 40.302C30.8515 40.3006 30.8516 40.3001 30.8516 40.2991C30.8516 40.2988 30.8516 40.2984 30.8516 40.298C30.8554 40.2986 30.8592 40.2992 30.863 40.2998C30.9587 40.3147 31.0545 40.3291 31.1505 40.343C32.4881 40.5357 33.8705 40.6141 35.5888 40.3514C35.9579 40.295 36.2747 40.5937 36.1355 40.9401C35.8565 41.6341 35.1721 42.5821 33.514 42.5893C31.7862 42.5958 31.1367 41.2143 30.9324 40.5949ZM31.2467 40.6404C32.5617 40.8217 33.9369 40.8884 35.6313 40.6293C35.7317 40.614 35.8105 40.6489 35.8513 40.6907C35.8853 40.7257 35.9008 40.7701 35.8746 40.8352C35.7477 41.151 35.5321 41.5153 35.1682 41.8012C34.8081 42.0841 34.2844 42.3048 33.5128 42.3081C32.5292 42.3118 31.9454 41.8205 31.5947 41.3112C31.4306 41.073 31.3194 40.8324 31.2467 40.6404Z" fill="black"/>
<path d="M30.8667 35.1235C30.8667 35.7476 30.5827 36.2536 30.2341 36.2536C29.8855 36.2536 29.6016 35.7476 29.6016 35.1235C29.6016 34.4993 29.8855 33.9933 30.2341 33.9933C30.5827 33.9933 30.8667 34.4993 30.8667 35.1235Z" fill="black"/>
<path d="M37.5933 35.1235C37.5933 35.7476 37.3093 36.2536 36.9607 36.2536C36.6121 36.2536 36.3281 35.7476 36.3281 35.1235C36.3281 34.4993 36.6121 33.9933 36.9607 33.9933C37.3093 33.9933 37.5933 34.4993 37.5933 35.1235Z" fill="black"/>
<path d="M29.0993 32.6389C29.5435 32.3999 30.1929 32.1047 30.8255 32.0119C31.1657 31.9613 31.3765 31.6211 31.2613 31.2978L31.2388 31.2332C31.1544 30.9998 30.9239 30.8536 30.6765 30.8789C30.1142 30.938 29.1162 31.1348 28.4639 31.7842C28.3233 31.9248 28.2727 32.1328 28.3346 32.324C28.4358 32.6445 28.8041 32.7963 29.0993 32.6361V32.6389Z" fill="black"/>
<path d="M38.096 32.6389C37.6518 32.3999 37.0024 32.1047 36.3698 32.0119C36.0297 31.9613 35.8188 31.6211 35.9341 31.2978L35.9566 31.2332C36.0409 30.9998 36.2715 30.8536 36.5189 30.8789C37.0811 30.938 38.0792 31.1348 38.7314 31.7842C38.872 31.9248 38.9226 32.1328 38.8607 32.324C38.7595 32.6445 38.3912 32.7963 38.096 32.6361V32.6389Z" fill="black"/>
<mask id="path-28-inside-1_40000001_33293" fill="white">
<path d="M2 80.298H142V99.0609H2L2 80.298Z"/>
</mask>
<path d="M2 80.298H142V99.0609H2L2 80.298Z" fill="#EAF1FE"/>
<path d="M2 81.0196H142V79.5763H2V81.0196Z" fill="#6764E8" mask="url(#path-28-inside-1_40000001_33293)"/>
<path d="M10 86.7962L12.8866 88.9612L10 91.1261" stroke="black" stroke-width="0.721649" stroke-linecap="round" stroke-linejoin="round"/>
<path d="M18.6598 86.7962L21.5464 88.9612L18.6598 91.1261" stroke="black" stroke-width="0.721649" stroke-linecap="round" stroke-linejoin="round"/>
<path d="M27.3196 86.7962L30.2062 88.9612L27.3196 91.1261" stroke="black" stroke-width="0.721649" stroke-linecap="round" stroke-linejoin="round"/>
<path d="M35.9794 86.7962L38.866 88.9612L35.9794 91.1261" stroke="black" stroke-width="0.721649" stroke-linecap="round" stroke-linejoin="round"/>
<path d="M44.6392 86.7962L47.5258 88.9612L44.6392 91.1261" stroke="black" stroke-width="0.721649" stroke-linecap="round" stroke-linejoin="round"/>
<path d="M53.299 86.7962L56.1856 88.9612L53.299 91.1261" stroke="black" stroke-width="0.721649" stroke-linecap="round" stroke-linejoin="round"/>
<path d="M61.9588 86.7962L64.8454 88.9612L61.9588 91.1261" stroke="black" stroke-width="0.721649" stroke-linecap="round" stroke-linejoin="round"/>
<path d="M70.6186 86.7962L73.5052 88.9612L70.6186 91.1261" stroke="black" stroke-width="0.721649" stroke-linecap="round" stroke-linejoin="round"/>
<path d="M79.2784 86.7962L82.1649 88.9612L79.2784 91.1261" stroke="black" stroke-width="0.721649" stroke-linecap="round" stroke-linejoin="round"/>
<path d="M87.9381 86.7962L90.8247 88.9612L87.9381 91.1261" stroke="black" stroke-width="0.721649" stroke-linecap="round" stroke-linejoin="round"/>
<path d="M96.5979 86.7962L99.4845 88.9612L96.5979 91.1261" stroke="black" stroke-width="0.721649" stroke-linecap="round" stroke-linejoin="round"/>
<path d="M105.258 86.7962L108.144 88.9612L105.258 91.1261" stroke="black" stroke-width="0.721649" stroke-linecap="round" stroke-linejoin="round"/>
<path d="M113.918 86.7962L116.804 88.9612L113.918 91.1261" stroke="black" stroke-width="0.721649" stroke-linecap="round" stroke-linejoin="round"/>
<path d="M122.577 86.7962L125.464 88.9612L122.577 91.1261" stroke="black" stroke-width="0.721649" stroke-linecap="round" stroke-linejoin="round"/>
<path d="M131.237 86.7962L134.124 88.9612L131.237 91.1261" stroke="black" stroke-width="0.721649" stroke-linecap="round" stroke-linejoin="round"/>
</g>
</g>
<rect x="2" y="2.0011" width="138" height="96" rx="6" stroke="#FF5387" stroke-width="3"/>
<ellipse cx="71.0004" cy="98.1388" rx="11.8286" ry="11.8617" fill="white"/>
<path fill-rule="evenodd" clip-rule="evenodd" d="M71.0004 110.001C77.5332 110.001 82.829 104.69 82.829 98.1388C82.829 91.5878 77.5332 86.2772 71.0004 86.2772C64.4677 86.2772 59.1719 91.5878 59.1719 98.1388C59.1719 104.69 64.4677 110.001 71.0004 110.001ZM74.5584 94.571C74.0451 94.0563 73.2129 94.0563 72.6997 94.571L71.0004 96.275L69.3012 94.571C68.788 94.0563 67.9558 94.0563 67.4425 94.571C66.9293 95.0857 66.9293 95.9202 67.4425 96.4348L69.1418 98.1388L67.4425 99.8428C66.9293 100.358 66.9293 101.192 67.4425 101.707C67.9558 102.221 68.788 102.221 69.3012 101.707L71.0004 100.003L72.6997 101.707C73.2129 102.221 74.0451 102.221 74.5584 101.707C75.0716 101.192 75.0716 100.358 74.5584 99.8428L72.8591 98.1388L74.5584 96.4348C75.0716 95.9202 75.0716 95.0857 74.5584 94.571Z" fill="#FF5387"/>
<defs>
<filter id="filter0_f_40000001_33293" x="0" y="0.00109863" width="144" height="101" filterUnits="userSpaceOnUse" color-interpolation-filters="sRGB">
<feFlood flood-opacity="0" result="BackgroundImageFix"/>
<feBlend mode="normal" in="SourceGraphic" in2="BackgroundImageFix" result="shape"/>
<feGaussianBlur stdDeviation="1" result="effect1_foregroundBlur_40000001_33293"/>
</filter>
<clipPath id="clip0_40000001_33293">
<rect x="2" y="2.0011" width="138" height="96" rx="6" fill="white"/>
</clipPath>
<clipPath id="clip1_40000001_33293">
<rect width="97" height="140" fill="white" transform="matrix(0 -1 1 0 2 99.0011)"/>
</clipPath>
</defs>
</svg>
