<svg width="142" height="110" viewBox="0 0 142 110" fill="none" xmlns="http://www.w3.org/2000/svg">
<g clip-path="url(#clip0_40000001_33672)">
<rect x="2" y="2.0011" width="140" height="97" fill="white"/>
<rect x="14" y="14.0011" width="36" height="36" fill="#EAF1FE" stroke="#6764E8" stroke-width="0.5"/>
<path d="M55 37.0011H75" stroke="#6764E8" stroke-width="0.5"/>
<path d="M83 37.0011H130" stroke="#6764E8" stroke-width="0.5"/>
<path d="M55 45.0011H120" stroke="#6764E8" stroke-width="0.5"/>
<path d="M14 58.0011H79" stroke="black" stroke-width="0.5"/>
<path d="M88 58.0011H130" stroke="black" stroke-width="0.5"/>
<path d="M14 74.0011H64" stroke="black" stroke-width="0.5"/>
<path d="M74 74.0011H129" stroke="black" stroke-width="0.5"/>
<path d="M88.1588 68.0836C87.6042 68.0836 87.1642 67.8705 86.8388 67.4442C86.5133 67.018 86.3506 66.4405 86.3506 65.7117C86.3506 64.983 86.511 64.4078 86.8319 63.9861C87.1573 63.5598 87.5996 63.3467 88.1588 63.3467C88.7133 63.3467 89.151 63.5598 89.4719 63.9861C89.7973 64.4078 89.96 64.983 89.96 65.7117C89.96 66.4405 89.7973 67.018 89.4719 67.4442C89.1465 67.8705 88.7088 68.0836 88.1588 68.0836ZM88.1588 67.3823C88.4888 67.3823 88.7454 67.2357 88.9288 66.9423C89.1167 66.649 89.2106 66.2388 89.2106 65.7117C89.2106 65.3634 89.1671 65.0655 89.08 64.818C88.9975 64.5659 88.876 64.3757 88.7156 64.2473C88.5598 64.1144 88.3742 64.048 88.1588 64.048C87.9388 64.048 87.7485 64.1144 87.5881 64.2473C87.4277 64.3757 87.3063 64.5659 87.2238 64.818C87.1413 65.0655 87.1 65.3634 87.1 65.7117C87.1 66.2388 87.1917 66.649 87.375 66.9423C87.5629 67.2357 87.8242 67.3823 88.1588 67.3823ZM92.1872 63.3398C92.6776 63.3398 93.0786 63.4888 93.3903 63.7867C93.7066 64.0846 93.8647 64.4673 93.8647 64.9348C93.8647 65.384 93.7043 65.8813 93.3834 66.4267L92.4691 68.0011H91.6509C92.1597 67.1211 92.4759 66.5642 92.5997 66.3305C92.4255 66.3992 92.2445 66.4336 92.0566 66.4336C91.6211 66.4336 91.2568 66.2915 90.9634 66.0073C90.6701 65.7186 90.5234 65.3611 90.5234 64.9348C90.5234 64.4719 90.6793 64.0915 90.9909 63.7936C91.3026 63.4911 91.7013 63.3398 92.1872 63.3398ZM92.1941 65.8355C92.4645 65.8355 92.6868 65.7507 92.8609 65.5811C93.0397 65.4115 93.1291 65.1961 93.1291 64.9348C93.1291 64.8065 93.1061 64.6873 93.0603 64.5773C93.0145 64.4673 92.9503 64.3734 92.8678 64.2955C92.7853 64.213 92.6845 64.1511 92.5653 64.1098C92.4507 64.064 92.327 64.0411 92.1941 64.0411C91.9236 64.0411 91.6991 64.1259 91.5203 64.2955C91.3461 64.4605 91.2591 64.6759 91.2591 64.9417C91.2591 65.203 91.3461 65.4184 91.5203 65.588C91.6991 65.753 91.9236 65.8355 92.1941 65.8355ZM94.2222 68.0011V67.1211H95.0609V68.0011H94.2222ZM95.4319 63.4292H96.9719V68.0011H96.2363V64.0961H95.4319V63.4292ZM97.8022 63.4292H99.3422V68.0011H98.6066V64.0961H97.8022V63.4292ZM100.42 68.0011V67.1211H101.259V68.0011H100.42ZM103.383 67.2998H105.088V68.0011H101.96V67.8017C102.643 67.0546 103.135 66.4978 103.438 66.1311C103.745 65.7598 103.949 65.478 104.05 65.2855C104.151 65.093 104.201 64.9028 104.201 64.7148C104.201 64.5819 104.171 64.4651 104.112 64.3642C104.057 64.2634 103.976 64.1855 103.871 64.1305C103.77 64.0709 103.651 64.0411 103.513 64.0411C103.298 64.0411 103.124 64.1053 102.991 64.2336C102.863 64.3573 102.798 64.5201 102.798 64.7217V64.8248H102.056V64.7217C102.056 64.3092 102.189 63.9769 102.455 63.7248C102.721 63.4682 103.071 63.3398 103.507 63.3398C103.933 63.3398 104.279 63.4682 104.545 63.7248C104.815 63.9815 104.95 64.3115 104.95 64.7148C104.95 64.9257 104.911 65.1296 104.833 65.3267C104.76 65.5238 104.609 65.7782 104.38 66.0898C104.155 66.3969 103.823 66.8003 103.383 67.2998ZM107.571 68.0836C107.016 68.0836 106.576 67.8705 106.251 67.4442C105.925 67.018 105.763 66.4405 105.763 65.7117C105.763 64.983 105.923 64.4078 106.244 63.9861C106.569 63.5598 107.012 63.3467 107.571 63.3467C108.125 63.3467 108.563 63.5598 108.884 63.9861C109.209 64.4078 109.372 64.983 109.372 65.7117C109.372 66.4405 109.209 67.018 108.884 67.4442C108.559 67.8705 108.121 68.0836 107.571 68.0836ZM107.571 67.3823C107.901 67.3823 108.157 67.2357 108.341 66.9423C108.529 66.649 108.623 66.2388 108.623 65.7117C108.623 65.3634 108.579 65.0655 108.492 64.818C108.41 64.5659 108.288 64.3757 108.128 64.2473C107.972 64.1144 107.786 64.048 107.571 64.048C107.351 64.048 107.161 64.1144 107 64.2473C106.84 64.3757 106.718 64.5659 106.636 64.818C106.553 65.0655 106.512 65.3634 106.512 65.7117C106.512 66.2388 106.604 66.649 106.787 66.9423C106.975 67.2357 107.236 67.3823 107.571 67.3823ZM111.4 67.2998H113.105V68.0011H109.977V67.8017C110.66 67.0546 111.152 66.4978 111.455 66.1311C111.762 65.7598 111.966 65.478 112.067 65.2855C112.168 65.093 112.218 64.9028 112.218 64.7148C112.218 64.5819 112.188 64.4651 112.129 64.3642C112.074 64.2634 111.993 64.1855 111.888 64.1305C111.787 64.0709 111.668 64.0411 111.53 64.0411C111.315 64.0411 111.141 64.1053 111.008 64.2336C110.88 64.3573 110.815 64.5201 110.815 64.7217V64.8248H110.073V64.7217C110.073 64.3092 110.206 63.9769 110.472 63.7248C110.738 63.4682 111.088 63.3398 111.524 63.3398C111.95 63.3398 112.296 63.4682 112.562 63.7248C112.832 63.9815 112.967 64.3115 112.967 64.7148C112.967 64.9257 112.928 65.1296 112.85 65.3267C112.777 65.5238 112.626 65.7782 112.397 66.0898C112.172 66.3969 111.84 66.8003 111.4 67.2998ZM115.588 68.0836C115.033 68.0836 114.593 67.8705 114.268 67.4442C113.942 67.018 113.78 66.4405 113.78 65.7117C113.78 64.983 113.94 64.4078 114.261 63.9861C114.586 63.5598 115.029 63.3467 115.588 63.3467C116.142 63.3467 116.58 63.5598 116.901 63.9861C117.226 64.4078 117.389 64.983 117.389 65.7117C117.389 66.4405 117.226 67.018 116.901 67.4442C116.576 67.8705 116.138 68.0836 115.588 68.0836ZM115.588 67.3823C115.918 67.3823 116.174 67.2357 116.358 66.9423C116.546 66.649 116.64 66.2388 116.64 65.7117C116.64 65.3634 116.596 65.0655 116.509 64.818C116.427 64.5659 116.305 64.3757 116.145 64.2473C115.989 64.1144 115.803 64.048 115.588 64.048C115.368 64.048 115.178 64.1144 115.017 64.2473C114.857 64.3757 114.735 64.5659 114.653 64.818C114.57 65.0655 114.529 65.3634 114.529 65.7117C114.529 66.2388 114.621 66.649 114.804 66.9423C114.992 67.2357 115.253 67.3823 115.588 67.3823Z" fill="black"/>
<path d="M17.31 63.1886C18.0158 63.1886 18.5979 63.4155 19.0563 63.8692C19.5192 64.323 19.7506 64.8982 19.7506 65.5948C19.7506 66.2915 19.5192 66.8667 19.0563 67.3205C18.5979 67.7742 18.0158 68.0011 17.31 68.0011H15.6119V63.1886H17.31ZM17.2894 67.2655C17.7706 67.2655 18.1648 67.1096 18.4719 66.798C18.7835 66.4817 18.9394 66.0807 18.9394 65.5948C18.9394 65.3519 18.8981 65.1273 18.8156 64.9211C18.7377 64.7148 18.6254 64.5384 18.4788 64.3917C18.3367 64.2451 18.1625 64.1305 17.9563 64.048C17.75 63.9655 17.5277 63.9242 17.2894 63.9242H16.4025V67.2655H17.2894ZM23.7266 64.2886H24.3179V68.0011H23.6991L23.6235 67.5473C23.266 67.9094 22.8191 68.0905 22.2829 68.0905C21.7283 68.0905 21.2654 67.9048 20.8941 67.5336C20.5275 67.1623 20.3441 66.6994 20.3441 66.1448C20.3441 65.5857 20.5275 65.1228 20.8941 64.7561C21.2654 64.3848 21.7283 64.1992 22.2829 64.1992C22.8283 64.1992 23.2798 64.3826 23.6373 64.7492L23.7266 64.2886ZM21.4648 67.018C21.6985 67.2471 21.9895 67.3617 22.3379 67.3617C22.6908 67.3617 22.9795 67.2471 23.2041 67.018C23.4333 66.7842 23.5479 66.4932 23.5479 66.1448C23.5479 65.7919 23.4333 65.5009 23.2041 65.2717C22.9795 65.0426 22.6908 64.928 22.3379 64.928C22.1087 64.928 21.9002 64.9807 21.7123 65.0861C21.5289 65.1915 21.3845 65.3382 21.2791 65.5261C21.1737 65.7094 21.121 65.9157 21.121 66.1448C21.121 66.4932 21.2356 66.7842 21.4648 67.018ZM27.0767 67.3067H27.4961V68.0011H26.9324C26.662 68.0011 26.4282 67.9484 26.2311 67.843C26.034 67.7376 25.8828 67.5863 25.7774 67.3892C25.672 67.1876 25.6192 66.9515 25.6192 66.6811V64.9417H24.9524V64.7973L26.2449 63.4223H26.3755V64.2886H27.4755V64.9417H26.3824V66.6192C26.3824 66.8392 26.442 67.0088 26.5611 67.128C26.6803 67.2471 26.8522 67.3067 27.0767 67.3067ZM31.74 66.1517C31.74 66.2205 31.7355 66.3053 31.7263 66.4061H28.715C28.7609 66.704 28.8846 66.9401 29.0863 67.1142C29.2925 67.2884 29.5469 67.3755 29.8494 67.3755C29.9961 67.3755 30.1336 67.3548 30.2619 67.3136C30.3902 67.2678 30.5025 67.2059 30.5988 67.128C30.6996 67.0455 30.7821 66.9469 30.8463 66.8323H31.6507C31.504 67.2265 31.2702 67.5359 30.9494 67.7605C30.6286 67.9805 30.2619 68.0905 29.8494 68.0905C29.304 68.0905 28.848 67.9048 28.4813 67.5336C28.1192 67.1623 27.9382 66.6994 27.9382 66.1448C27.9382 65.5903 28.1192 65.1273 28.4813 64.7561C28.848 64.3848 29.304 64.1992 29.8494 64.1992C30.2207 64.1992 30.5507 64.2886 30.8394 64.4673C31.1282 64.6415 31.3505 64.8776 31.5063 65.1755C31.6621 65.4688 31.74 65.7942 31.74 66.1517ZM29.8494 64.8867C29.5652 64.8867 29.3223 64.9669 29.1207 65.1273C28.9236 65.2878 28.793 65.5078 28.7288 65.7873H30.9769C30.9311 65.5994 30.8555 65.439 30.75 65.3061C30.6446 65.1686 30.514 65.0655 30.3582 64.9967C30.2069 64.9234 30.0373 64.8867 29.8494 64.8867ZM37.4381 67.5405C37.0623 67.9071 36.5902 68.0905 36.0219 68.0905C35.4535 68.0905 34.9792 67.9071 34.5987 67.5405C34.2229 67.1692 34.035 66.704 34.035 66.1448C34.035 65.7782 34.1198 65.4459 34.2894 65.148C34.4635 64.8501 34.7019 64.6186 35.0044 64.4536C35.3115 64.284 35.6506 64.1992 36.0219 64.1992C36.3931 64.1992 36.73 64.284 37.0325 64.4536C37.3396 64.6186 37.5779 64.8501 37.7475 65.148C37.9217 65.4459 38.0087 65.7782 38.0087 66.1448C38.0087 66.704 37.8185 67.1692 37.4381 67.5405ZM36.0219 67.3617C36.2556 67.3617 36.4642 67.3113 36.6475 67.2105C36.8308 67.1051 36.9729 66.9607 37.0737 66.7773C37.1792 66.5894 37.2319 66.3786 37.2319 66.1448C37.2319 65.7919 37.1173 65.5009 36.8881 65.2717C36.6635 65.0426 36.3748 64.928 36.0219 64.928C35.669 64.928 35.3779 65.0426 35.1487 65.2717C34.9242 65.5009 34.8119 65.7919 34.8119 66.1448C34.8119 66.4978 34.9242 66.7888 35.1487 67.018C35.3779 67.2471 35.669 67.3617 36.0219 67.3617ZM40.8788 64.323V64.9555H39.8338V68.0011H39.0707V64.9555H38.3763V64.323H39.0707V64.0067C39.0707 63.223 39.4648 62.8311 40.2532 62.8311H40.8719V63.443H40.4044C40.1936 63.443 40.04 63.4888 39.9438 63.5805C39.8521 63.6721 39.8063 63.8211 39.8063 64.0273V64.323H40.8788ZM46.6263 66.1517C46.6263 66.2205 46.6217 66.3053 46.6125 66.4061H43.6013C43.6471 66.704 43.7709 66.9401 43.9725 67.1142C44.1788 67.2884 44.4332 67.3755 44.7357 67.3755C44.8823 67.3755 45.0198 67.3548 45.1482 67.3136C45.2765 67.2678 45.3888 67.2059 45.485 67.128C45.5859 67.0455 45.6684 66.9469 45.7325 66.8323H46.5369C46.3902 67.2265 46.1565 67.5359 45.8357 67.7605C45.5148 67.9805 45.1482 68.0905 44.7357 68.0905C44.1902 68.0905 43.7342 67.9048 43.3675 67.5336C43.0055 67.1623 42.8244 66.6994 42.8244 66.1448C42.8244 65.5903 43.0055 65.1273 43.3675 64.7561C43.7342 64.3848 44.1902 64.1992 44.7357 64.1992C45.1069 64.1992 45.4369 64.2886 45.7257 64.4673C46.0144 64.6415 46.2367 64.8776 46.3925 65.1755C46.5484 65.4688 46.6263 65.7942 46.6263 66.1517ZM44.7357 64.8867C44.4515 64.8867 44.2086 64.9669 44.0069 65.1273C43.8098 65.2878 43.6792 65.5078 43.615 65.7873H45.8632C45.8173 65.5994 45.7417 65.439 45.6363 65.3061C45.5309 65.1686 45.4002 65.0655 45.2444 64.9967C45.0932 64.9234 44.9236 64.8867 44.7357 64.8867ZM50.3753 68.0011H49.5159L48.5878 66.5848L47.6528 68.0011H46.814L48.134 66.083L46.9171 64.2886H47.7696L48.5946 65.5398L49.4403 64.2886H50.279L49.0415 66.0417L50.3753 68.0011ZM52.9557 64.1992C53.3224 64.1992 53.6524 64.284 53.9457 64.4536C54.2391 64.6186 54.4682 64.8501 54.6332 65.148C54.7982 65.4459 54.8807 65.7782 54.8807 66.1448C54.8807 66.704 54.6974 67.1692 54.3307 67.5405C53.9687 67.9071 53.5103 68.0905 52.9557 68.0905C52.4791 68.0905 52.0689 67.9415 51.7251 67.6436V69.3348H50.962V64.2886H51.4776L51.622 64.7423C51.9795 64.3803 52.4241 64.1992 52.9557 64.1992ZM52.0276 67.018C52.2568 67.2471 52.5455 67.3617 52.8939 67.3617C53.2468 67.3617 53.5378 67.2471 53.767 67.018C53.9962 66.7842 54.1107 66.4932 54.1107 66.1448C54.1107 65.7965 53.9962 65.5078 53.767 65.2786C53.5378 65.0448 53.2491 64.928 52.9007 64.928C52.6716 64.928 52.463 64.9807 52.2751 65.0861C52.0872 65.1915 51.9405 65.3382 51.8351 65.5261C51.7343 65.7094 51.6839 65.9157 51.6839 66.1448C51.6839 66.4932 51.7985 66.7842 52.0276 67.018ZM55.702 63.7111V62.9273H56.4926V63.7111H55.702ZM55.7157 68.0011V64.2886H56.4789V68.0011H55.7157ZM59.3564 64.268H59.6864V64.9898H59.2877C58.6552 64.9898 58.3389 65.3336 58.3389 66.0211V68.0011H57.5758V64.2886H58.0914L58.2221 64.7973C58.4879 64.4444 58.866 64.268 59.3564 64.268ZM62.9421 64.2886H63.7602L62.0552 68.0698C61.8398 68.5419 61.6198 68.8696 61.3952 69.053C61.1752 69.2409 60.8796 69.3348 60.5084 69.3348H60.1302V68.6473H60.4465C60.6894 68.6473 60.8682 68.5992 60.9827 68.503C61.0973 68.4067 61.2234 68.2073 61.3609 67.9048L61.4434 67.733L59.8277 64.2886H60.6596L61.8352 66.8805L62.9421 64.2886Z" fill="black"/>
<path d="M14 84.0011H131" stroke="black" stroke-width="0.5"/>
<path d="M48 49.6241H15C15.0285 49.4381 15.0657 49.2302 15.1074 49.007C15.1512 48.7773 15.2016 48.5322 15.2564 48.2784C15.3419 47.8889 15.4405 47.4775 15.55 47.0618C15.6158 46.8167 15.6837 46.5738 15.756 46.3331C15.8809 45.9086 16.019 45.4972 16.1636 45.1187C16.2622 44.8561 16.3674 44.611 16.4748 44.39C16.626 44.075 16.7838 43.808 16.9438 43.6154C17.0621 43.471 17.2352 43.3244 17.4456 43.1756C17.7874 42.9327 18.2367 42.6855 18.7363 42.447C19.6786 41.994 20.8006 41.5652 21.7429 41.2326C22.8714 40.8343 23.7436 40.5739 23.7436 40.5739L24.0219 40.5039L27.8546 39.5389H33.6508L37.7224 40.5039L38.5508 40.7008C38.5508 40.7008 39.458 40.9043 40.6304 41.2347C41.7524 41.5498 43.122 41.9765 44.1739 42.4492C44.6976 42.6833 45.1424 42.9306 45.4405 43.1778C45.5259 43.25 45.6004 43.3222 45.6618 43.3944C45.8546 43.6264 46.0606 43.9743 46.271 44.3944C46.3828 44.6198 46.4945 44.8649 46.6063 45.1231C46.7706 45.506 46.9306 45.9174 47.0818 46.3375C47.1695 46.5804 47.2527 46.8233 47.3316 47.0661C47.4675 47.4819 47.5902 47.8954 47.6954 48.2827C47.7655 48.5388 47.8247 48.7838 47.8773 49.0114C47.9277 49.2346 47.9671 49.4425 47.9978 49.6284L48 49.6241Z" fill="white"/>
<path fill-rule="evenodd" clip-rule="evenodd" d="M15.756 46.3331C15.6837 46.5738 15.6158 46.8167 15.55 47.0618C15.4405 47.4775 15.3419 47.8889 15.2564 48.2784C15.2016 48.5322 15.1512 48.7773 15.1074 49.007C15.0814 49.1463 15.0571 49.2795 15.0356 49.4053C15.0227 49.4811 15.0107 49.5541 15 49.6241H47.9971C47.9973 49.6255 47.9976 49.627 47.9978 49.6284L48 49.6241H47.9971C47.997 49.6235 47.9969 49.623 47.9968 49.6225C47.9853 49.553 47.9726 49.4805 47.9585 49.4053C47.9353 49.2808 47.9084 49.149 47.8773 49.0114C47.8247 48.7838 47.7655 48.5388 47.6954 48.2827C47.5902 47.8954 47.4675 47.4819 47.3316 47.0661C47.2527 46.8233 47.1695 46.5804 47.0818 46.3375C46.9306 45.9174 46.7706 45.506 46.6063 45.1231C46.4945 44.8649 46.3828 44.6198 46.271 44.3944C46.0606 43.9743 45.8546 43.6264 45.6618 43.3944C45.6004 43.3222 45.5259 43.25 45.4405 43.1778C45.1424 42.9306 44.6976 42.6833 44.1739 42.4492C43.122 41.9765 41.7524 41.5498 40.6304 41.2347C39.458 40.9043 38.5508 40.7008 38.5508 40.7008L33.6508 39.5389H27.8546L23.7436 40.5739C23.7436 40.5739 22.8714 40.8343 21.7429 41.2326C20.8006 41.5652 19.6786 41.994 18.7363 42.447C18.2367 42.6855 17.7874 42.9327 17.4456 43.1756C17.2352 43.3244 17.0621 43.471 16.9438 43.6154C16.7838 43.808 16.626 44.075 16.4748 44.39C16.3674 44.611 16.2622 44.8561 16.1636 45.1187C16.019 45.4972 15.8809 45.9086 15.756 46.3331ZM21.8159 41.4389C20.8764 41.7705 19.7631 42.1963 18.8314 42.6441L18.8308 42.6444C18.3365 42.8804 17.8999 43.1214 17.5726 43.3539L17.5722 43.3542C17.3685 43.4983 17.2136 43.6317 17.1134 43.754L17.1124 43.7552C16.9687 43.9282 16.8199 44.1772 16.6724 44.4846L16.672 44.4856C16.5678 44.7 16.4652 44.9388 16.3688 45.1955L16.3684 45.1967C16.226 45.5694 16.0897 45.9753 15.9663 46.3948L15.9659 46.396C15.8944 46.6339 15.8272 46.8744 15.7618 47.1179C15.6532 47.5303 15.5553 47.9385 15.4705 48.3249C15.4161 48.5771 15.3661 48.8201 15.3227 49.0475C15.2994 49.1726 15.2776 49.2922 15.258 49.4053H47.7355C47.7146 49.2955 47.6907 49.1801 47.6637 49.0602C47.6114 48.8341 47.553 48.5924 47.484 48.3405L47.4839 48.34C47.3796 47.9561 47.258 47.5461 47.1233 47.134L47.1232 47.1336C47.045 46.893 46.9625 46.6524 46.8756 46.4117C46.7257 45.9951 46.5674 45.5879 46.4051 45.2099C46.2944 44.954 46.1843 44.7126 46.0747 44.4917C45.8669 44.0768 45.6703 43.7475 45.494 43.5352C45.4426 43.4748 45.3778 43.4115 45.2997 43.3455C45.0245 43.1174 44.6012 42.8799 44.0843 42.6489L44.0839 42.6487C43.0476 42.1831 41.6911 41.7599 40.5711 41.4454C39.9877 41.281 39.4699 41.1481 39.0983 41.0563C38.9126 41.0104 38.7634 40.9749 38.6607 40.9508C38.6094 40.9388 38.5698 40.9296 38.543 40.9235L38.5127 40.9166L38.5028 40.9144L38.5 40.9137L37.6718 40.7168L33.6252 39.7578H27.8818L24.0755 40.7161L23.8019 40.7849L23.7967 40.7865L23.7676 40.7953C23.7418 40.8031 23.7037 40.8147 23.6543 40.8299C23.5556 40.8603 23.4121 40.9051 23.2333 40.9623C22.8758 41.0767 22.3777 41.2406 21.8159 41.4389Z" fill="white"/>
<path d="M23.9066 32.1925C23.9066 32.1925 23.3434 33.5229 23.9066 34.3084C24.4697 35.094 25.3551 34.9561 25.3551 34.9561C25.3551 34.9561 24.8401 37.0392 26.4179 37.3127C27.9957 37.5863 28.2981 36.3565 28.2981 36.3565C28.2981 36.3565 27.038 31.2363 23.9087 32.1925H23.9066Z" fill="black"/>
<path d="M37.2822 32.1925C37.2822 32.1925 37.8453 33.5229 37.2822 34.3084C36.719 35.094 35.8336 34.9561 35.8336 34.9561C35.8336 34.9561 36.3486 37.0392 34.7708 37.3127C33.193 37.5863 32.8906 36.3565 32.8906 36.3565C32.8906 36.3565 34.1507 31.2363 37.28 32.1925H37.2822Z" fill="black"/>
<path d="M34.1748 39.7822C34.1748 39.7822 33.3312 41.3577 30.9732 41.3577C28.6153 41.3577 27.7344 39.7035 27.7344 39.7035L27.8746 38.57L27.8987 38.3796L28.1179 36.5941L33.7541 36.7517L33.8483 37.43L33.879 37.6532L34.1748 39.7822Z" fill="white"/>
<path fill-rule="evenodd" clip-rule="evenodd" d="M27.8987 38.3796L27.8746 38.57L27.7344 39.7035C27.7344 39.7035 28.6153 41.3577 30.9732 41.3577C33.3312 41.3577 34.1748 39.7822 34.1748 39.7822L33.879 37.6532L33.8483 37.43L33.7541 36.7517L28.1179 36.5941L27.8987 38.3796ZM28.3111 36.8184L28.1161 38.4071L28.0921 38.5968L28.092 38.5975L27.961 39.656C27.9614 39.6565 27.9617 39.657 27.962 39.6575C27.9874 39.6976 28.0273 39.7567 28.0826 39.8286C28.1933 39.9723 28.3652 40.166 28.6069 40.3601C29.088 40.7464 29.8503 41.1389 30.9732 41.1389C32.099 41.1389 32.8527 40.7641 33.3235 40.3974C33.5601 40.2131 33.7269 40.0295 33.8337 39.8934C33.8853 39.8277 33.9227 39.7732 33.9471 39.7355L33.6619 37.6829L33.6312 37.4597L33.5625 36.9652L28.3111 36.8184ZM27.9276 39.6002C27.9275 39.6001 27.9276 39.6002 27.9276 39.6002V39.6002Z" fill="black"/>
<path d="M26.0033 31.948C24.7433 33.7051 22.026 32.517 22.2122 30.1844C22.381 28.0685 24.7477 28.4033 24.7477 28.4033L26.0033 31.9459V31.948Z" fill="white"/>
<path fill-rule="evenodd" clip-rule="evenodd" d="M24.7477 28.4033C24.7477 28.4033 22.381 28.0685 22.2122 30.1844C22.026 32.517 24.7433 33.7051 26.0033 31.948V31.9459L24.7477 28.4033ZM25.758 31.9094C25.1951 32.6133 24.3577 32.7188 23.656 32.4006C22.9235 32.0684 22.3451 31.2729 22.4307 30.2018L22.4307 30.2018C22.4694 29.7164 22.6317 29.3882 22.8407 29.1617C23.0522 28.9326 23.325 28.7929 23.6053 28.7102C23.8859 28.6274 24.1652 28.6044 24.3769 28.6028C24.4601 28.6022 24.5319 28.6049 24.5879 28.6083L25.758 31.9094Z" fill="black"/>
<path d="M35.3359 31.948C36.596 33.7051 39.3133 32.517 39.127 30.1844C38.9583 28.0685 36.5916 28.4033 36.5916 28.4033L35.3359 31.9459V31.948Z" fill="white"/>
<path fill-rule="evenodd" clip-rule="evenodd" d="M38.9086 30.2018L38.9086 30.2018C38.8699 29.7164 38.7076 29.3882 38.4985 29.1617C38.2871 28.9326 38.0142 28.7929 37.7339 28.7102C37.4533 28.6274 37.174 28.6044 36.9624 28.6028C36.8791 28.6022 36.8074 28.6049 36.7514 28.6083L35.5813 31.9094C36.1442 32.6133 36.9816 32.7188 37.6832 32.4006C38.4158 32.0684 38.9941 31.2729 38.9086 30.2018ZM35.3359 31.9459L36.5916 28.4033C36.5916 28.4033 38.9583 28.0685 39.127 30.1844C39.3133 32.517 36.596 33.7051 35.3359 31.948V31.9459Z" fill="black"/>
<path d="M24.2419 25.8368C24.2419 25.8368 23.6261 29.6507 25.2214 33.3793C26.6677 36.7599 28.8219 37.8124 30.8686 37.8453C33.198 37.8825 37.846 36.5368 37.0746 25.502C36.553 18.0448 24.8577 18.3096 24.2419 25.8368Z" fill="white"/>
<path fill-rule="evenodd" clip-rule="evenodd" d="M24.4582 25.8715L24.4582 25.8716L24.4582 25.8718L24.4579 25.8734L24.4568 25.8807C24.4558 25.8874 24.4543 25.8977 24.4523 25.9114C24.4484 25.9389 24.4427 25.9803 24.436 26.0346C24.4227 26.1432 24.4052 26.3036 24.389 26.5081C24.3568 26.9172 24.33 27.5023 24.3524 28.2028C24.3973 29.6053 24.6393 31.4619 25.4229 33.2933L25.4229 33.2933C26.1339 34.955 27.0113 36.0276 27.9465 36.6892C28.8808 37.35 29.8866 37.6107 30.8721 37.6265C31.993 37.6444 33.6613 37.331 34.9626 35.6898C36.2705 34.0403 37.24 31.0103 36.856 25.5172C36.73 23.7151 35.932 22.3911 34.8024 21.5232C33.6685 20.6519 32.1895 20.2325 30.6989 20.269C27.7145 20.3419 24.7568 22.2303 24.4603 25.8546L24.4596 25.8631L24.4582 25.8715L24.4582 25.8715ZM37.0746 25.502C37.846 36.5368 33.198 37.8825 30.8686 37.8453C28.8219 37.8124 26.6677 36.7599 25.2214 33.3793C23.6261 29.6507 24.2419 25.8368 24.2419 25.8368C24.8577 18.3096 36.553 18.0448 37.0746 25.502Z" fill="black"/>
<path d="M31.0608 32.4038C31.0608 32.4038 31.0543 32.4038 31.0499 32.4038L30.0243 32.3207C29.9476 32.3141 29.8885 32.2463 29.895 32.1697C29.9016 32.0931 29.9695 32.034 30.0462 32.0406L30.9031 32.1106L30.6357 29.5089C30.627 29.4323 30.6839 29.3623 30.7606 29.3557C30.8373 29.347 30.9074 29.4039 30.914 29.4805L31.1989 32.2507C31.2033 32.2922 31.1879 32.3338 31.1595 32.3623C31.1332 32.3885 31.0959 32.4038 31.0587 32.4038H31.0608Z" fill="black"/>
<path d="M24.9681 28.1168C25.0426 28.9789 24.5758 30.0598 23.8395 29.6003C23.5152 29.399 23.5415 28.7798 23.4122 28.0314C23.2588 27.143 23.6686 27.3137 22.7636 26.1212C21.8059 24.8586 22.4392 22.9987 23.4122 22.9462C23.4122 22.9462 22.2026 21.0009 23.9097 19.4999C25.4458 18.1498 26.7957 19.1082 26.7957 19.1082C26.7957 19.1082 27.0806 17.2658 28.6847 17.0098C30.2888 16.7538 31.5576 18.1607 31.5576 18.1607C31.5576 18.1607 32.6138 16.7581 34.5159 17.4233C36.4159 18.0885 35.8351 19.4583 35.8351 19.4583C35.8351 19.4583 37.7329 19.2351 38.5021 20.653C39.1682 21.8806 38.2961 22.793 38.2961 22.793C38.2961 22.793 39.1376 23.3444 38.9622 24.8236C38.811 26.0905 37.86 26.189 37.8468 27.0599C37.8403 27.5457 37.7351 28.1102 37.6452 28.5172C37.5751 28.8367 37.2595 29.3903 36.9308 29.3903C36.5079 29.3903 36.2143 28.6922 36.269 28.2743C36.3589 27.5697 36.3874 26.5654 35.9535 25.9855C35.2347 25.0293 35.6686 23.8018 34.5115 23.4604C33.3545 23.1191 29.5262 24.9615 26.7913 23.4254C26.7913 23.4254 26.9535 24.9352 25.998 25.3794C25.0426 25.8236 24.8892 27.4363 24.9637 28.119C24.9637 28.0993 24.9637 28.1386 24.9637 28.119L24.9681 28.1168Z" fill="black"/>
<path fill-rule="evenodd" clip-rule="evenodd" d="M28.688 33.6502C28.6448 33.5192 28.6271 33.432 28.6252 33.4222C28.625 33.4211 28.625 33.4208 28.625 33.42C28.625 33.4198 28.625 33.4195 28.625 33.4191C28.628 33.4196 28.631 33.4201 28.6339 33.4205C28.7085 33.4321 28.7832 33.4434 28.858 33.4541C29.9007 33.6042 30.9781 33.6652 32.3175 33.4607C32.6052 33.4168 32.8522 33.6493 32.7436 33.9189C32.5262 34.459 31.9927 35.1969 30.7003 35.2025C29.3535 35.2076 28.8473 34.1323 28.688 33.6502ZM28.933 33.6857C29.958 33.8268 31.0299 33.8787 32.3507 33.677C32.4289 33.6651 32.4903 33.6922 32.5221 33.7248C32.5486 33.7521 32.5607 33.7866 32.5403 33.8373C32.4414 34.083 32.2733 34.3666 31.9897 34.5891C31.709 34.8093 31.3008 34.9811 30.6993 34.9837C29.9326 34.9865 29.4776 34.6042 29.2043 34.2078C29.0764 34.0223 28.9896 33.8351 28.933 33.6857Z" fill="black"/>
<path d="M28.6267 29.3846C28.6267 29.8704 28.4054 30.2643 28.1337 30.2643C27.862 30.2643 27.6406 29.8704 27.6406 29.3846C27.6406 28.8989 27.862 28.505 28.1337 28.505C28.4054 28.505 28.6267 28.8989 28.6267 29.3846Z" fill="black"/>
<path d="M33.8767 29.3846C33.8767 29.8704 33.6554 30.2643 33.3837 30.2643C33.112 30.2643 32.8906 29.8704 32.8906 29.3846C32.8906 28.8989 33.112 28.505 33.3837 28.505C33.6554 28.505 33.8767 28.8989 33.8767 29.3846Z" fill="black"/>
<path d="M27.2569 27.466C27.6032 27.28 28.1094 27.0503 28.6025 26.9781C28.8676 26.9387 29.032 26.6739 28.9421 26.4223L28.9246 26.372C28.8588 26.1904 28.6792 26.0766 28.4863 26.0963C28.048 26.1422 27.2701 26.2954 26.7617 26.8008C26.6521 26.9102 26.6127 27.0722 26.6609 27.221C26.7398 27.4704 27.0269 27.5886 27.2569 27.4638V27.466Z" fill="black"/>
<path d="M34.2724 27.466C33.9262 27.28 33.42 27.0503 32.9269 26.9781C32.6617 26.9387 32.4974 26.6739 32.5872 26.4223L32.6048 26.372C32.6705 26.1904 32.8502 26.0766 33.043 26.0963C33.4813 26.1422 34.2593 26.2954 34.7677 26.8008C34.8772 26.9102 34.9167 27.0722 34.8685 27.221C34.7896 27.4704 34.5025 27.5886 34.2724 27.4638V27.466Z" fill="black"/>
<rect x="62" y="14.0011" width="68" height="12" fill="#EAF1FE" stroke="#6764E8" stroke-width="0.5"/>
<rect x="76.25" y="60.2511" width="52.5" height="10.5" stroke="#FF5387" stroke-width="0.5"/>
<g clip-path="url(#clip1_40000001_33672)">
<rect y="99.0011" width="103" height="142" transform="rotate(-90 0 99.0011)" fill="white"/>
<path d="M64.4141 68.2042H133.95" stroke="black" stroke-width="0.731959"/>
<path d="M64.4141 50.6372H133.218" stroke="#6764E8" stroke-width="0.731959"/>
<path d="M64.4141 33.0702H93.6924" stroke="#6764E8" stroke-width="0.731959"/>
<path d="M101.012 33.0702H133.218" stroke="#6764E8" stroke-width="0.731959"/>
<path d="M100.512 45.0971C99.8667 45.0971 99.3547 44.8491 98.976 44.3531C98.5973 43.8571 98.408 43.1851 98.408 42.3371C98.408 41.4891 98.5947 40.8198 98.968 40.3291C99.3467 39.8331 99.8613 39.5851 100.512 39.5851C101.157 39.5851 101.667 39.8331 102.04 40.3291C102.419 40.8198 102.608 41.4891 102.608 42.3371C102.608 43.1851 102.419 43.8571 102.04 44.3531C101.661 44.8491 101.152 45.0971 100.512 45.0971ZM100.512 44.2811C100.896 44.2811 101.195 44.1104 101.408 43.7691C101.627 43.4278 101.736 42.9504 101.736 42.3371C101.736 41.9318 101.685 41.5851 101.584 41.2971C101.488 41.0038 101.347 40.7824 101.16 40.6331C100.979 40.4784 100.763 40.4011 100.512 40.4011C100.256 40.4011 100.035 40.4784 99.848 40.6331C99.6613 40.7824 99.52 41.0038 99.424 41.2971C99.328 41.5851 99.28 41.9318 99.28 42.3371C99.28 42.9504 99.3867 43.4278 99.6 43.7691C99.8187 44.1104 100.123 44.2811 100.512 44.2811ZM105.2 39.5771C105.77 39.5771 106.237 39.7504 106.6 40.0971C106.968 40.4438 107.152 40.8891 107.152 41.4331C107.152 41.9558 106.965 42.5344 106.592 43.1691L105.528 45.0011H104.576C105.168 43.9771 105.536 43.3291 105.68 43.0571C105.477 43.1371 105.266 43.1771 105.048 43.1771C104.541 43.1771 104.117 43.0118 103.776 42.6811C103.434 42.3451 103.264 41.9291 103.264 41.4331C103.264 40.8944 103.445 40.4518 103.808 40.1051C104.17 39.7531 104.634 39.5771 105.2 39.5771ZM105.208 42.4811C105.522 42.4811 105.781 42.3824 105.984 42.1851C106.192 41.9878 106.296 41.7371 106.296 41.4331C106.296 41.2838 106.269 41.1451 106.216 41.0171C106.162 40.8891 106.088 40.7798 105.992 40.6891C105.896 40.5931 105.778 40.5211 105.64 40.4731C105.506 40.4198 105.362 40.3931 105.208 40.3931C104.893 40.3931 104.632 40.4918 104.424 40.6891C104.221 40.8811 104.12 41.1318 104.12 41.4411C104.12 41.7451 104.221 41.9958 104.424 42.1931C104.632 42.3851 104.893 42.4811 105.208 42.4811ZM107.568 45.0011V43.9771H108.544V45.0011H107.568ZM108.975 39.6811H110.767V45.0011H109.911V40.4571H108.975V39.6811ZM111.734 39.6811H113.526V45.0011H112.67V40.4571H111.734V39.6811ZM114.78 45.0011V43.9771H115.756V45.0011H114.78ZM118.227 44.1851H120.211V45.0011H116.571V44.7691C117.366 43.8998 117.939 43.2518 118.291 42.8251C118.649 42.3931 118.886 42.0651 119.003 41.8411C119.121 41.6171 119.179 41.3958 119.179 41.1771C119.179 41.0224 119.145 40.8864 119.075 40.7691C119.011 40.6518 118.918 40.5611 118.795 40.4971C118.678 40.4278 118.539 40.3931 118.379 40.3931C118.129 40.3931 117.926 40.4678 117.771 40.6171C117.622 40.7611 117.547 40.9504 117.547 41.1851V41.3051H116.683V41.1851C116.683 40.7051 116.838 40.3184 117.147 40.0251C117.457 39.7264 117.865 39.5771 118.371 39.5771C118.867 39.5771 119.27 39.7264 119.579 40.0251C119.894 40.3238 120.051 40.7078 120.051 41.1771C120.051 41.4224 120.006 41.6598 119.915 41.8891C119.83 42.1184 119.654 42.4144 119.387 42.7771C119.126 43.1344 118.739 43.6038 118.227 44.1851ZM123.101 45.0971C122.455 45.0971 121.943 44.8491 121.565 44.3531C121.186 43.8571 120.997 43.1851 120.997 42.3371C120.997 41.4891 121.183 40.8198 121.557 40.3291C121.935 39.8331 122.45 39.5851 123.101 39.5851C123.746 39.5851 124.255 39.8331 124.629 40.3291C125.007 40.8198 125.197 41.4891 125.197 42.3371C125.197 43.1851 125.007 43.8571 124.629 44.3531C124.25 44.8491 123.741 45.0971 123.101 45.0971ZM123.101 44.2811C123.485 44.2811 123.783 44.1104 123.997 43.7691C124.215 43.4278 124.325 42.9504 124.325 42.3371C124.325 41.9318 124.274 41.5851 124.173 41.2971C124.077 41.0038 123.935 40.7824 123.749 40.6331C123.567 40.4784 123.351 40.4011 123.101 40.4011C122.845 40.4011 122.623 40.4784 122.437 40.6331C122.25 40.7824 122.109 41.0038 122.013 41.2971C121.917 41.5851 121.869 41.9318 121.869 42.3371C121.869 42.9504 121.975 43.4278 122.189 43.7691C122.407 44.1104 122.711 44.2811 123.101 44.2811ZM127.556 44.1851H129.54V45.0011H125.9V44.7691C126.695 43.8998 127.268 43.2518 127.62 42.8251C127.978 42.3931 128.215 42.0651 128.332 41.8411C128.45 41.6171 128.508 41.3958 128.508 41.1771C128.508 41.0224 128.474 40.8864 128.404 40.7691C128.34 40.6518 128.247 40.5611 128.124 40.4971C128.007 40.4278 127.868 40.3931 127.708 40.3931C127.458 40.3931 127.255 40.4678 127.1 40.6171C126.951 40.7611 126.876 40.9504 126.876 41.1851V41.3051H126.012V41.1851C126.012 40.7051 126.167 40.3184 126.476 40.0251C126.786 39.7264 127.194 39.5771 127.7 39.5771C128.196 39.5771 128.599 39.7264 128.908 40.0251C129.223 40.3238 129.38 40.7078 129.38 41.1771C129.38 41.4224 129.335 41.6598 129.244 41.8891C129.159 42.1184 128.983 42.4144 128.716 42.7771C128.455 43.1344 128.068 43.6038 127.556 44.1851ZM132.429 45.0971C131.784 45.0971 131.272 44.8491 130.893 44.3531C130.515 43.8571 130.325 43.1851 130.325 42.3371C130.325 41.4891 130.512 40.8198 130.885 40.3291C131.264 39.8331 131.779 39.5851 132.429 39.5851C133.075 39.5851 133.584 39.8331 133.957 40.3291C134.336 40.8198 134.525 41.4891 134.525 42.3371C134.525 43.1851 134.336 43.8571 133.957 44.3531C133.579 44.8491 133.069 45.0971 132.429 45.0971ZM132.429 44.2811C132.813 44.2811 133.112 44.1104 133.325 43.7691C133.544 43.4278 133.653 42.9504 133.653 42.3371C133.653 41.9318 133.603 41.5851 133.501 41.2971C133.405 41.0038 133.264 40.7824 133.077 40.6331C132.896 40.4784 132.68 40.4011 132.429 40.4011C132.173 40.4011 131.952 40.4784 131.765 40.6331C131.579 40.7824 131.437 41.0038 131.341 41.2971C131.245 41.5851 131.197 41.9318 131.197 42.3371C131.197 42.9504 131.304 43.4278 131.517 43.7691C131.736 44.1104 132.04 44.2811 132.429 44.2811Z" fill="black"/>
<rect x="64.4141" y="14.0402" width="68.8041" height="14.6392" fill="#EAF1FE" stroke="#6764E8" stroke-width="0.731959"/>
<rect x="10.25" y="14.0402" width="46.8454" height="46.8454" fill="#EAF1FE" stroke="#6764E8" stroke-width="0.731959"/>
<path d="M54.5002 60.4799H11.5586C11.5957 60.2375 11.6441 59.9666 11.6983 59.6757C11.7554 59.3763 11.8209 59.0569 11.8922 58.7262C12.0034 58.2186 12.1318 57.6825 12.2743 57.1407C12.3599 56.8213 12.4483 56.5048 12.5424 56.1911C12.7049 55.6379 12.8846 55.1018 13.0728 54.6085C13.2011 54.2663 13.338 53.9469 13.4777 53.6589C13.6744 53.2483 13.8798 52.9004 14.0879 52.6495C14.2419 52.4613 14.4672 52.2702 14.7409 52.0763C15.1858 51.7598 15.7703 51.4376 16.4205 51.1268C17.6467 50.5365 19.1067 49.9776 20.3328 49.5441C21.8014 49.0252 22.9363 48.6858 22.9363 48.6858L23.2984 48.5946L28.2858 47.337H35.8282L41.1264 48.5946L42.2043 48.8512C42.2043 48.8512 43.3848 49.1164 44.9104 49.547C46.3704 49.9576 48.1526 50.5137 49.5214 51.1296C50.2029 51.4347 50.7817 51.7569 51.1696 52.0792C51.2808 52.1733 51.3777 52.2674 51.4576 52.3615C51.7085 52.6637 51.9766 53.1171 52.2503 53.6646C52.3957 53.9583 52.5412 54.2777 52.6866 54.6142C52.9005 55.1132 53.1086 55.6493 53.3054 56.1968C53.4194 56.5133 53.5278 56.8299 53.6305 57.1464C53.8072 57.6882 53.9669 58.2271 54.1038 58.7319C54.1951 59.0655 54.272 59.3849 54.3405 59.6814C54.4061 59.9723 54.4574 60.2432 54.4973 60.4856L54.5002 60.4799Z" fill="white"/>
<path fill-rule="evenodd" clip-rule="evenodd" d="M12.5424 56.1911C12.4483 56.5048 12.3599 56.8213 12.2743 57.1407C12.1318 57.6825 12.0034 58.2186 11.8922 58.7262C11.8209 59.0569 11.7554 59.3763 11.6983 59.6757C11.6645 59.8572 11.6329 60.0309 11.605 60.1947C11.5881 60.2935 11.5725 60.3887 11.5586 60.4799H54.4964C54.4967 60.4818 54.497 60.4837 54.4973 60.4856L54.5002 60.4799H54.4964C54.4963 60.4792 54.4961 60.4785 54.496 60.4778C54.4811 60.3872 54.4645 60.2927 54.4462 60.1947C54.4159 60.0325 54.3809 59.8608 54.3405 59.6814C54.272 59.3849 54.1951 59.0655 54.1038 58.7319C53.9669 58.2271 53.8072 57.6882 53.6305 57.1464C53.5278 56.8299 53.4194 56.5133 53.3054 56.1968C53.1086 55.6493 52.9005 55.1132 52.6866 54.6142C52.5412 54.2777 52.3957 53.9583 52.2503 53.6646C51.9766 53.1171 51.7085 52.6637 51.4576 52.3615C51.3777 52.2674 51.2808 52.1733 51.1696 52.0792C50.7817 51.7569 50.2029 51.4347 49.5214 51.1296C48.1526 50.5137 46.3704 49.9576 44.9104 49.547C43.3848 49.1164 42.2043 48.8512 42.2043 48.8512L35.8282 47.337H28.2858L22.9363 48.6858C22.9363 48.6858 21.8014 49.0252 20.3328 49.5441C19.1067 49.9776 17.6467 50.5365 16.4205 51.1268C15.7703 51.4376 15.1858 51.7598 14.7409 52.0763C14.4672 52.2702 14.2419 52.4613 14.0879 52.6495C13.8798 52.9004 13.6744 53.2483 13.4777 53.6589C13.338 53.9469 13.2011 54.2663 13.0728 54.6085C12.8846 55.1018 12.7049 55.6379 12.5424 56.1911ZM20.4279 49.813C19.2054 50.2451 17.7566 50.8 16.5442 51.3837L16.5435 51.384C15.9003 51.6915 15.3321 52.0056 14.9063 52.3087L14.9058 52.309C14.6407 52.4968 14.4391 52.6706 14.3086 52.8301L14.3074 52.8316C14.1204 53.057 13.9268 53.3816 13.7348 53.7822L13.7343 53.7834C13.5987 54.0629 13.4652 54.3741 13.3398 54.7086L13.3392 54.7101C13.1539 55.1959 12.9766 55.7248 12.816 56.2715L12.8155 56.2731C12.7225 56.5831 12.6349 56.8966 12.5499 57.2138C12.4085 57.7513 12.2812 58.2832 12.1709 58.7867C12.1 59.1155 12.035 59.4322 11.9786 59.7285C11.9482 59.8915 11.9198 60.0473 11.8943 60.1947H54.156C54.1288 60.0516 54.0977 59.9012 54.0625 59.745C53.9945 59.4504 53.9185 59.1353 53.8288 58.8071L53.8286 58.8065C53.6929 58.3062 53.5346 57.7719 53.3594 57.2349L53.3592 57.2344C53.2575 56.9208 53.1501 56.6072 53.0371 56.2935C52.842 55.7506 52.6359 55.22 52.4248 54.7273C52.2807 54.3939 52.1374 54.0793 51.9948 53.7913C51.7245 53.2508 51.4686 52.8215 51.2392 52.5449C51.1723 52.4662 51.088 52.3838 50.9864 52.2978C50.6282 52.0004 50.0774 51.691 49.4048 51.3899L49.4043 51.3896C48.0559 50.7828 46.2906 50.2314 44.8332 49.8215C44.074 49.6072 43.4004 49.434 42.9168 49.3145C42.6751 49.2547 42.4809 49.2083 42.3474 49.177C42.2806 49.1613 42.229 49.1494 42.1942 49.1414L42.1548 49.1324L42.1419 49.1295L42.1382 49.1286L41.0605 48.872L35.7948 47.6222H28.3212L23.3682 48.8711L23.0122 48.9608L23.0054 48.9628L22.9675 48.9743C22.934 48.9844 22.8844 48.9996 22.8201 49.0194C22.6916 49.0591 22.5049 49.1174 22.2723 49.1919C21.807 49.341 21.1589 49.5546 20.4279 49.813Z" fill="white"/>
<path d="M23.1343 37.7421C23.1343 37.7421 22.4015 39.4759 23.1343 40.4996C23.8672 41.5233 25.0192 41.3436 25.0192 41.3436C25.0192 41.3436 24.3491 44.0583 26.4022 44.4148C28.4553 44.7712 28.8488 43.1686 28.8488 43.1686C28.8488 43.1686 27.2092 36.496 23.1372 37.7421H23.1343Z" fill="black"/>
<path d="M40.5348 37.7421C40.5348 37.7421 41.2677 39.4759 40.5348 40.4996C39.802 41.5233 38.65 41.3436 38.65 41.3436C38.65 41.3436 39.3201 44.0583 37.2669 44.4148C35.2138 44.7712 34.8203 43.1686 34.8203 43.1686C34.8203 43.1686 36.46 36.496 40.532 37.7421H40.5348Z" fill="black"/>
<path d="M36.5096 47.648C36.5096 47.648 35.4118 49.7011 32.3435 49.7011C29.2752 49.7011 28.1289 47.5453 28.1289 47.5453L28.3114 46.0682L28.3428 45.8202L28.6279 43.4933L35.9621 43.6986L36.0847 44.5826L36.1247 44.8734L36.5096 47.648Z" fill="white"/>
<path fill-rule="evenodd" clip-rule="evenodd" d="M28.3428 45.8202L28.3114 46.0682L28.1289 47.5453C28.1289 47.5453 29.2752 49.7011 32.3435 49.7011C35.4118 49.7011 36.5096 47.648 36.5096 47.648L36.1247 44.8734L36.0847 44.5826L35.9621 43.6986L28.6279 43.4933L28.3428 45.8202ZM28.8794 43.7856L28.6257 45.8559L28.5944 46.1032L28.5943 46.104L28.4239 47.4835C28.4243 47.4841 28.4247 47.4848 28.4251 47.4854C28.4582 47.5377 28.51 47.6148 28.582 47.7084C28.7261 47.8957 28.9498 48.1481 29.2643 48.401C29.8903 48.9045 30.8822 49.416 32.3435 49.416C33.8084 49.416 34.7892 48.9276 35.4018 48.4497C35.7097 48.2095 35.9268 47.9702 36.0657 47.7929C36.1329 47.7072 36.1816 47.6363 36.2133 47.5871L35.8422 44.9122L35.8022 44.6214L35.7128 43.9769L28.8794 43.7856ZM28.3803 47.4108C28.3803 47.4107 28.3803 47.4107 28.3803 47.4108V47.4108Z" fill="black"/>
<path d="M25.8552 37.4349C24.2156 39.7247 20.6796 38.1763 20.922 35.1365C21.1416 32.3791 24.2213 32.8154 24.2213 32.8154L25.8552 37.432V37.4349Z" fill="white"/>
<path fill-rule="evenodd" clip-rule="evenodd" d="M24.2213 32.8154C24.2213 32.8154 21.1416 32.3791 20.922 35.1365C20.6796 38.1763 24.2156 39.7247 25.8552 37.4349V37.432L24.2213 32.8154ZM25.5359 37.3845C24.8035 38.3019 23.7138 38.4394 22.8008 38.0247C21.8476 37.5917 21.095 36.5551 21.2063 35.1592L21.2063 35.1592C21.2566 34.5267 21.4679 34.099 21.7399 33.8038C22.015 33.5052 22.37 33.3232 22.7348 33.2154C23.0999 33.1075 23.4634 33.0775 23.7388 33.0754C23.8471 33.0746 23.9405 33.0781 24.0134 33.0826L25.5359 37.3845Z" fill="black"/>
<path d="M38.0156 37.4349C39.6553 39.7247 43.1912 38.1763 42.9488 35.1365C42.7292 32.3791 39.6496 32.8154 39.6496 32.8154L38.0156 37.432V37.4349Z" fill="white"/>
<path fill-rule="evenodd" clip-rule="evenodd" d="M42.6646 35.1592L42.6646 35.1592C42.6142 34.5267 42.403 34.099 42.131 33.8038C41.8558 33.5052 41.5008 33.3232 41.136 33.2154C40.7709 33.1075 40.4075 33.0775 40.1321 33.0754C40.0237 33.0746 39.9303 33.0781 39.8575 33.0826L38.3349 37.3845C39.0673 38.3019 40.157 38.4394 41.0701 38.0247C42.0233 37.5917 42.7759 36.5551 42.6646 35.1592ZM38.0156 37.432L39.6496 32.8154C39.6496 32.8154 42.7292 32.3791 42.9488 35.1365C43.1912 38.1763 39.6553 39.7247 38.0156 37.4349V37.432Z" fill="black"/>
<path d="M23.5622 29.459C23.5622 29.459 22.761 34.4293 24.8369 39.2883C26.7189 43.694 29.522 45.0656 32.1853 45.1084C35.2165 45.1568 41.2647 43.4031 40.261 29.0227C39.5823 19.3046 24.3635 19.6497 23.5622 29.459Z" fill="white"/>
<path fill-rule="evenodd" clip-rule="evenodd" d="M23.8438 29.5043L23.8438 29.5044L23.8437 29.5047L23.8434 29.5068L23.8419 29.5163C23.8406 29.525 23.8386 29.5384 23.836 29.5563C23.8309 29.5921 23.8236 29.6461 23.8149 29.7168C23.7975 29.8584 23.7747 30.0674 23.7538 30.334C23.7118 30.8671 23.6769 31.6296 23.7061 32.5424C23.7646 34.3701 24.0794 36.7896 25.0991 39.1763L25.0991 39.1763C26.0242 41.3419 27.1659 42.7396 28.383 43.6018C29.5987 44.463 30.9075 44.8027 32.1899 44.8232C33.6484 44.8466 35.8194 44.4382 37.5127 42.2994C39.2145 40.1498 40.4761 36.2011 39.9765 29.0426C39.8125 26.6941 38.7741 24.9687 37.3042 23.8376C35.8287 22.7022 33.9041 22.1557 31.9646 22.2032C28.0811 22.2982 24.2323 24.7592 23.8464 29.4822L23.8455 29.4934L23.8438 29.5043L23.8438 29.5043ZM40.261 29.0227C41.2647 43.4031 35.2165 45.1568 32.1853 45.1084C29.522 45.0656 26.7189 43.694 24.8369 39.2883C22.761 34.4293 23.5622 29.459 23.5622 29.459C24.3635 19.6497 39.5823 19.3046 40.261 29.0227Z" fill="black"/>
<path d="M32.4435 38.0135C32.4435 38.0135 32.4349 38.0135 32.4292 38.0135L31.0947 37.9052C30.9949 37.8966 30.9179 37.8082 30.9264 37.7084C30.935 37.6086 31.0234 37.5316 31.1232 37.5402L32.2381 37.6314L31.8903 34.2409C31.8789 34.1411 31.953 34.0499 32.0528 34.0413C32.1526 34.0299 32.2439 34.1041 32.2524 34.2039L32.6231 37.8139C32.6288 37.8681 32.6089 37.9223 32.5718 37.9594C32.5376 37.9936 32.4891 38.0135 32.4406 38.0135H32.4435Z" fill="black"/>
<path d="M24.5174 32.4302C24.6143 33.5537 24.0069 34.9624 23.0488 34.3636C22.6268 34.1012 22.661 33.2943 22.4928 32.319C22.2931 31.1613 22.8264 31.3837 21.6487 29.8296C20.4026 28.1843 21.2267 25.7604 22.4928 25.692C22.4928 25.692 20.9187 23.157 23.1401 21.2008C25.139 19.4414 26.8956 20.6904 26.8956 20.6904C26.8956 20.6904 27.2663 18.2894 29.3536 17.9557C31.4409 17.6221 33.092 19.4557 33.092 19.4557C33.092 19.4557 34.4664 17.6278 36.9416 18.4947C39.4139 19.3616 38.6582 21.1466 38.6582 21.1466C38.6582 21.1466 41.1277 20.8558 42.1286 22.7036C42.9954 24.3033 41.8605 25.4924 41.8605 25.4924C41.8605 25.4924 42.9555 26.211 42.7274 28.1386C42.5306 29.7897 41.2931 29.918 41.276 31.0529C41.2674 31.686 41.1305 32.4217 41.0136 32.9521C40.9224 33.3684 40.5117 34.0898 40.084 34.0898C39.5336 34.0898 39.1515 33.1802 39.2228 32.6355C39.3397 31.7173 39.3768 30.4085 38.8122 29.6528C37.8769 28.4067 38.4415 26.807 36.9359 26.3621C35.4303 25.9173 30.4486 28.3183 26.8899 26.3165C26.8899 26.3165 27.1009 28.2841 25.8576 28.8629C24.6143 29.4418 24.4147 31.5434 24.5117 32.4331C24.5117 32.4074 24.5117 32.4588 24.5117 32.4331L24.5174 32.4302Z" fill="black"/>
<path fill-rule="evenodd" clip-rule="evenodd" d="M29.3477 39.646C29.2913 39.4752 29.2684 39.3616 29.2659 39.3489C29.2656 39.3475 29.2656 39.347 29.2656 39.346C29.2656 39.3457 29.2656 39.3453 29.2656 39.3448C29.2695 39.3455 29.2734 39.3461 29.2772 39.3467C29.3743 39.3618 29.4714 39.3764 29.5688 39.3905C30.9256 39.586 32.3277 39.6655 34.0706 39.399C34.4449 39.3418 34.7663 39.6448 34.625 39.9961C34.3421 40.7 33.6479 41.6616 31.9661 41.6689C30.2136 41.6755 29.5549 40.2742 29.3477 39.646ZM29.6665 39.6922C31.0002 39.8761 32.395 39.9437 34.1137 39.6809C34.2154 39.6654 34.2954 39.7007 34.3368 39.7432C34.3713 39.7787 34.387 39.8237 34.3604 39.8898C34.2317 40.21 34.013 40.5796 33.6439 40.8695C33.2787 41.1565 32.7475 41.3804 31.9648 41.3837C30.9672 41.3874 30.3751 40.8892 30.0194 40.3726C29.853 40.1309 29.7401 39.8869 29.6665 39.6922Z" fill="black"/>
<path d="M29.2793 34.0927C29.2793 34.7258 28.9913 35.2391 28.6377 35.2391C28.2841 35.2391 27.9961 34.7258 27.9961 34.0927C27.9961 33.4597 28.2841 32.9464 28.6377 32.9464C28.9913 32.9464 29.2793 33.4597 29.2793 34.0927Z" fill="black"/>
<path d="M36.1035 34.0927C36.1035 34.7258 35.8155 35.2391 35.4619 35.2391C35.1083 35.2391 34.8203 34.7258 34.8203 34.0927C34.8203 33.4597 35.1083 32.9464 35.4619 32.9464C35.8155 32.9464 36.1035 33.4597 36.1035 34.0927Z" fill="black"/>
<path d="M27.4895 31.5781C27.94 31.3357 28.5988 31.0363 29.2404 30.9422C29.5854 30.8909 29.7993 30.5458 29.6823 30.2179L29.6595 30.1523C29.574 29.9157 29.3402 29.7674 29.0892 29.793C28.5189 29.8529 27.5066 30.0525 26.845 30.7112C26.7025 30.8538 26.6511 31.0648 26.7139 31.2587C26.8165 31.5838 27.1901 31.7378 27.4895 31.5753V31.5781Z" fill="black"/>
<path d="M36.6157 31.5781C36.1651 31.3357 35.5064 31.0363 34.8648 30.9422C34.5198 30.8909 34.3059 30.5458 34.4228 30.2179L34.4456 30.1523C34.5312 29.9157 34.765 29.7674 35.0159 29.793C35.5863 29.8529 36.5986 30.0525 37.2601 30.7112C37.4027 30.8538 37.454 31.0648 37.3913 31.2587C37.2886 31.5838 36.9151 31.7378 36.6157 31.5753V31.5781Z" fill="black"/>
<mask id="path-62-inside-1_40000001_33672" fill="white">
<path d="M0 79.9152H142V98.9461H0L0 79.9152Z"/>
</mask>
<path d="M0 79.9152H142V98.9461H0L0 79.9152Z" fill="#EAF1FE"/>
<path d="M0 80.6471H142V79.1832H0L0 80.6471Z" fill="#6764E8" mask="url(#path-62-inside-1_40000001_33672)"/>
<path d="M8 86.5L10.9278 88.6959L8 90.8918" stroke="black" stroke-width="0.731959" stroke-linecap="round" stroke-linejoin="round"/>
<path d="M16.7835 86.5L19.7113 88.6959L16.7835 90.8918" stroke="black" stroke-width="0.731959" stroke-linecap="round" stroke-linejoin="round"/>
<path d="M25.567 86.5L28.4949 88.6959L25.567 90.8918" stroke="black" stroke-width="0.731959" stroke-linecap="round" stroke-linejoin="round"/>
<path d="M34.3505 86.5L37.2784 88.6959L34.3505 90.8918" stroke="black" stroke-width="0.731959" stroke-linecap="round" stroke-linejoin="round"/>
<path d="M43.134 86.5L46.0619 88.6959L43.134 90.8918" stroke="black" stroke-width="0.731959" stroke-linecap="round" stroke-linejoin="round"/>
<path d="M51.9175 86.5L54.8453 88.6959L51.9175 90.8918" stroke="black" stroke-width="0.731959" stroke-linecap="round" stroke-linejoin="round"/>
<path d="M60.701 86.5L63.6289 88.6959L60.701 90.8918" stroke="black" stroke-width="0.731959" stroke-linecap="round" stroke-linejoin="round"/>
<path d="M69.4845 86.5L72.4124 88.6959L69.4845 90.8918" stroke="black" stroke-width="0.731959" stroke-linecap="round" stroke-linejoin="round"/>
<path d="M78.268 86.5L81.1959 88.6959L78.268 90.8918" stroke="black" stroke-width="0.731959" stroke-linecap="round" stroke-linejoin="round"/>
<path d="M87.0515 86.5L89.9794 88.6959L87.0515 90.8918" stroke="black" stroke-width="0.731959" stroke-linecap="round" stroke-linejoin="round"/>
<path d="M95.8351 86.5L98.7629 88.6959L95.8351 90.8918" stroke="black" stroke-width="0.731959" stroke-linecap="round" stroke-linejoin="round"/>
<path d="M104.619 86.5L107.546 88.6959L104.619 90.8918" stroke="black" stroke-width="0.731959" stroke-linecap="round" stroke-linejoin="round"/>
<path d="M113.402 86.5L116.33 88.6959L113.402 90.8918" stroke="black" stroke-width="0.731959" stroke-linecap="round" stroke-linejoin="round"/>
<path d="M122.186 86.5L125.113 88.6959L122.186 90.8918" stroke="black" stroke-width="0.731959" stroke-linecap="round" stroke-linejoin="round"/>
<path d="M130.969 86.5L133.897 88.6959L130.969 90.8918" stroke="black" stroke-width="0.731959" stroke-linecap="round" stroke-linejoin="round"/>
<path d="M66.4166 42.0499C66.8494 42.0499 67.2064 42.189 67.4875 42.4673C67.7713 42.7455 67.9133 43.0983 67.9133 43.5255C67.9133 43.9527 67.7713 44.3055 67.4875 44.5837C67.2064 44.862 66.8494 45.0011 66.4166 45.0011H65.3752V42.0499H66.4166ZM66.4039 44.55C66.6991 44.55 66.9408 44.4544 67.1291 44.2633C67.3202 44.0694 67.4158 43.8234 67.4158 43.5255C67.4158 43.3765 67.3905 43.2388 67.3399 43.1123C67.2921 42.9858 67.2233 42.8776 67.1333 42.7877C67.0462 42.6977 66.9394 42.6275 66.8129 42.5769C66.6864 42.5263 66.5501 42.501 66.4039 42.501H65.8601V44.55H66.4039ZM70.3515 42.7244H70.7141V45.0011H70.3347L70.2883 44.7228C70.0691 44.9449 69.795 45.0559 69.4662 45.0559C69.1261 45.0559 68.8422 44.9421 68.6145 44.7144C68.3897 44.4867 68.2772 44.2029 68.2772 43.8628C68.2772 43.5199 68.3897 43.236 68.6145 43.0111C68.8422 42.7835 69.1261 42.6696 69.4662 42.6696C69.8006 42.6696 70.0775 42.7821 70.2967 43.0069L70.3515 42.7244ZM68.9645 44.3982C69.1078 44.5387 69.2863 44.609 69.4999 44.609C69.7163 44.609 69.8934 44.5387 70.0311 44.3982C70.1716 44.2549 70.2419 44.0764 70.2419 43.8628C70.2419 43.6463 70.1716 43.4679 70.0311 43.3273C69.8934 43.1868 69.7163 43.1165 69.4999 43.1165C69.3594 43.1165 69.2315 43.1489 69.1162 43.2135C69.0038 43.2781 68.9153 43.3681 68.8506 43.4833C68.786 43.5958 68.7537 43.7222 68.7537 43.8628C68.7537 44.0764 68.8239 44.2549 68.9645 44.3982ZM72.406 44.5753H72.6631V45.0011H72.3174C72.1516 45.0011 72.0082 44.9688 71.8874 44.9041C71.7665 44.8395 71.6738 44.7467 71.6091 44.6259C71.5445 44.5022 71.5122 44.3575 71.5122 44.1916V43.125H71.1032V43.0364L71.8958 42.1932H71.9759V42.7244H72.6505V43.125H71.9801V44.1537C71.9801 44.2886 72.0167 44.3926 72.0898 44.4657C72.1628 44.5387 72.2682 44.5753 72.406 44.5753ZM75.2657 43.867C75.2657 43.9091 75.2629 43.9611 75.2573 44.023H73.4106C73.4387 44.2057 73.5146 44.3504 73.6383 44.4572C73.7648 44.564 73.9208 44.6174 74.1063 44.6174C74.1962 44.6174 74.2805 44.6048 74.3592 44.5795C74.4379 44.5514 74.5068 44.5134 74.5658 44.4657C74.6277 44.4151 74.6782 44.3546 74.7176 44.2844H75.2109C75.1209 44.5261 74.9776 44.7158 74.7808 44.8535C74.5841 44.9885 74.3592 45.0559 74.1063 45.0559C73.7718 45.0559 73.4921 44.9421 73.2673 44.7144C73.0452 44.4867 72.9342 44.2029 72.9342 43.8628C72.9342 43.5227 73.0452 43.2388 73.2673 43.0111C73.4921 42.7835 73.7718 42.6696 74.1063 42.6696C74.3339 42.6696 74.5363 42.7244 74.7134 42.8341C74.8905 42.9409 75.0268 43.0856 75.1223 43.2683C75.2179 43.4482 75.2657 43.6478 75.2657 43.867ZM74.1063 43.0912C73.932 43.0912 73.783 43.1404 73.6594 43.2388C73.5385 43.3372 73.4584 43.4721 73.4191 43.6435H74.7977C74.7696 43.5283 74.7232 43.4299 74.6586 43.3484C74.5939 43.2641 74.5138 43.2009 74.4183 43.1587C74.3255 43.1137 74.2215 43.0912 74.1063 43.0912ZM78.76 44.7186C78.5295 44.9435 78.24 45.0559 77.8915 45.0559C77.543 45.0559 77.2521 44.9435 77.0188 44.7186C76.7883 44.491 76.673 44.2057 76.673 43.8628C76.673 43.6379 76.725 43.4341 76.829 43.2514C76.9358 43.0687 77.082 42.9268 77.2675 42.8256C77.4558 42.7216 77.6638 42.6696 77.8915 42.6696C78.1191 42.6696 78.3257 42.7216 78.5112 42.8256C78.6996 42.9268 78.8457 43.0687 78.9497 43.2514C79.0565 43.4341 79.1099 43.6379 79.1099 43.8628C79.1099 44.2057 78.9933 44.491 78.76 44.7186ZM77.8915 44.609C78.0348 44.609 78.1627 44.5781 78.2751 44.5163C78.3876 44.4516 78.4747 44.3631 78.5365 44.2506C78.6012 44.1354 78.6335 44.0061 78.6335 43.8628C78.6335 43.6463 78.5632 43.4679 78.4227 43.3273C78.285 43.1868 78.1079 43.1165 77.8915 43.1165C77.6751 43.1165 77.4966 43.1868 77.356 43.3273C77.2183 43.4679 77.1495 43.6463 77.1495 43.8628C77.1495 44.0792 77.2183 44.2577 77.356 44.3982C77.4966 44.5387 77.6751 44.609 77.8915 44.609ZM80.8699 42.7455V43.1334H80.2291V45.0011H79.7611V43.1334H79.3353V42.7455H79.7611V42.5516C79.7611 42.071 80.0028 41.8306 80.4863 41.8306H80.8657V42.2059H80.579C80.4497 42.2059 80.3556 42.234 80.2966 42.2902C80.2404 42.3464 80.2122 42.4377 80.2122 42.5642V42.7455H80.8699ZM84.3946 43.867C84.3946 43.9091 84.3917 43.9611 84.3861 44.023H82.5395C82.5676 44.2057 82.6435 44.3504 82.7672 44.4572C82.8936 44.564 83.0496 44.6174 83.2351 44.6174C83.3251 44.6174 83.4094 44.6048 83.4881 44.5795C83.5668 44.5514 83.6357 44.5134 83.6947 44.4657C83.7565 44.4151 83.8071 44.3546 83.8465 44.2844H84.3397C84.2498 44.5261 84.1065 44.7158 83.9097 44.8535C83.713 44.9885 83.4881 45.0559 83.2351 45.0559C82.9007 45.0559 82.621 44.9421 82.3962 44.7144C82.1741 44.4867 82.0631 44.2029 82.0631 43.8628C82.0631 43.5227 82.1741 43.2388 82.3962 43.0111C82.621 42.7835 82.9007 42.6696 83.2351 42.6696C83.4628 42.6696 83.6652 42.7244 83.8423 42.8341C84.0193 42.9409 84.1556 43.0856 84.2512 43.2683C84.3468 43.4482 84.3946 43.6478 84.3946 43.867ZM83.2351 43.0912C83.0609 43.0912 82.9119 43.1404 82.7882 43.2388C82.6674 43.3372 82.5873 43.4721 82.5479 43.6435H83.9266C83.8985 43.5283 83.8521 43.4299 83.7874 43.3484C83.7228 43.2641 83.6427 43.2009 83.5471 43.1587C83.4544 43.1137 83.3504 43.0912 83.2351 43.0912ZM86.6936 45.0011H86.1666L85.5974 44.1326L85.024 45.0011H84.5097L85.3191 43.8248L84.5729 42.7244H85.0957L85.6016 43.4918L86.1202 42.7244H86.6346L85.8757 43.7995L86.6936 45.0011ZM88.276 42.6696C88.5009 42.6696 88.7033 42.7216 88.8831 42.8256C89.063 42.9268 89.2036 43.0687 89.3048 43.2514C89.4059 43.4341 89.4565 43.6379 89.4565 43.8628C89.4565 44.2057 89.3441 44.491 89.1192 44.7186C88.8972 44.9435 88.6161 45.0559 88.276 45.0559C87.9837 45.0559 87.7322 44.9646 87.5214 44.7819V45.819H87.0534V42.7244H87.3696L87.4581 43.0027C87.6774 42.7807 87.95 42.6696 88.276 42.6696ZM87.7069 44.3982C87.8474 44.5387 88.0245 44.609 88.2381 44.609C88.4545 44.609 88.633 44.5387 88.7735 44.3982C88.9141 44.2549 88.9843 44.0764 88.9843 43.8628C88.9843 43.6492 88.9141 43.4721 88.7735 43.3315C88.633 43.1882 88.4559 43.1165 88.2423 43.1165C88.1018 43.1165 87.9739 43.1489 87.8587 43.2135C87.7434 43.2781 87.6535 43.3681 87.5888 43.4833C87.527 43.5958 87.4961 43.7222 87.4961 43.8628C87.4961 44.0764 87.5663 44.2549 87.7069 44.3982ZM89.9601 42.3703V41.8897H90.445V42.3703H89.9601ZM89.9686 45.0011V42.7244H90.4366V45.0011H89.9686ZM92.2012 42.7118H92.4036V43.1545H92.159C91.7712 43.1545 91.5772 43.3653 91.5772 43.7869V45.0011H91.1092V42.7244H91.4255L91.5056 43.0364C91.6686 42.82 91.9005 42.7118 92.2012 42.7118ZM94.4001 42.7244H94.9018L93.8562 45.0433C93.7241 45.3328 93.5892 45.5337 93.4515 45.6462C93.3166 45.7614 93.1353 45.819 92.9076 45.819H92.6757V45.3974H92.8697C93.0186 45.3974 93.1283 45.3679 93.1985 45.3089C93.2688 45.2498 93.3461 45.1276 93.4304 44.9421L93.481 44.8367L92.4902 42.7244H93.0004L93.7213 44.3139L94.4001 42.7244Z" fill="black"/>
<rect x="96.366" y="36.3671" width="40.268" height="11.268" stroke="#FF5387" stroke-width="0.731959"/>
</g>
</g>
<rect x="2" y="2.0011" width="138" height="96" rx="6" stroke="#FF5387" stroke-width="3"/>
<ellipse cx="71.0004" cy="98.1388" rx="11.8286" ry="11.8617" fill="white"/>
<path fill-rule="evenodd" clip-rule="evenodd" d="M71.0004 110C77.5332 110 82.829 104.69 82.829 98.1388C82.829 91.5877 77.5332 86.2771 71.0004 86.2771C64.4677 86.2771 59.1719 91.5877 59.1719 98.1388C59.1719 104.69 64.4677 110 71.0004 110ZM74.5584 94.5709C74.0451 94.0562 73.2129 94.0562 72.6997 94.5709L71.0004 96.2749L69.3012 94.5709C68.788 94.0562 67.9558 94.0562 67.4425 94.5709C66.9293 95.0856 66.9293 95.9201 67.4425 96.4348L69.1418 98.1388L67.4425 99.8428C66.9293 100.357 66.9293 101.192 67.4425 101.707C67.9558 102.221 68.788 102.221 69.3012 101.707L71.0004 100.003L72.6997 101.707C73.2129 102.221 74.0451 102.221 74.5584 101.707C75.0716 101.192 75.0716 100.357 74.5584 99.8428L72.8591 98.1388L74.5584 96.4348C75.0716 95.9201 75.0716 95.0856 74.5584 94.5709Z" fill="#FF5387"/>
<defs>
<clipPath id="clip0_40000001_33672">
<rect x="2" y="2.0011" width="138" height="96" rx="6" fill="white"/>
</clipPath>
<clipPath id="clip1_40000001_33672">
<rect width="97" height="142" fill="white" transform="matrix(0 -1 1 0 0 99.0011)"/>
</clipPath>
</defs>
</svg>
